<svg xmlns:xlink="http://www.w3.org/1999/xlink" xmlns="http://www.w3.org/2000/svg" width="60" height="33"><g fill="none" fill-rule="evenodd"><path fill="#F26C23" d="M11.3 4.263C10.69 1.576 8.727.223 6.15.223 2.316.223.074 3.343.074 6.968s1.973 6.745 6.078 6.745c2.557 0 4.267-1.244 5.294-3.823L9.248 8.88c-.468 1.496-1.422 2.597-3.097 2.597-2.557 0-3.62-2.273-3.62-4.509S3.595 2.46 6.152 2.46c1.459 0 2.629.973 2.827 2.398zm8.597 2.777c0-2.597-1.962-2.994-3.925-2.994-1.999 0-3.89.83-3.89 2.976l2.197.09c0-.992.414-1.37 1.693-1.37.954 0 1.728.252 1.728 1.154v.27c-.557.199-1.584.38-2.376.541l-.919.18c-1.35.271-2.772 1.065-2.772 2.85 0 1.768 1.368 2.868 3.096 2.868 1.135 0 2.125-.36 2.971-1.046 0 .234.073.613.217.83h2.322c-.126-.199-.342-.596-.342-1.534zM17.7 10.124c0 1.172-1.314 1.677-2.34 1.677-.793 0-1.423-.45-1.423-1.136 0-.866.684-1.1 1.513-1.263l1.206-.252c.396-.072.757-.18 1.044-.325zm3.77 3.264h2.197V.188H21.47zm3.68-11.113v9.021c0 1.39.613 2.2 2.414 2.2.684 0 1.224-.108 1.746-.216v-1.803c-.324.036-.666.108-.972.108-.846 0-.99-.397-.99-1.118V5.85h1.962V4.263h-1.963V.073zm13.313 7.073c0-3.264-1.332-5.302-4.375-5.302-2.953 0-4.664 2.056-4.664 4.78 0 2.723 1.71 4.779 4.664 4.779 2.485 0 3.8-1.19 4.484-2.237l-1.855-1.082c-.217.307-.9 1.299-2.63 1.299-1.187 0-2.322-.884-2.358-2.237zM31.73 7.653c.234-.974 1.08-1.803 2.359-1.803 1.476 0 2.07 1.316 2.07 1.803zm15.984-1.01c-.558-1.37-1.639-2.597-3.854-2.597-2.952 0-4.663 2.056-4.663 4.78 0 2.723 1.71 4.779 4.501 4.779 2.467 0 3.512-1.461 4.124-2.796l-1.873-.992c-.342.83-.9 1.768-2.215 1.768-1.53 0-2.232-1.335-2.232-2.76s.792-2.759 2.358-2.759c.865 0 1.64.56 1.927 1.461zm.684 6.745h2.197V8.7c0-1.118.504-2.524 2.16-2.524 1.117 0 1.621.54 1.621 1.803v5.41h2.197V7.347c0-2.651-1.783-3.3-3.33-3.3-1.244 0-2.126.486-2.612 1.118h-.036V.187h-2.197z"/><g fill="#929292"><path d="M1.894 20.541q-.111-.214-.408-.214a.4.4 0 0 0-.268.087.6.6 0 0 0-.167.285q-.06.195-.084.514-.024.318-.024.778 0 .49.033.793.033.302.103.469t.175.223q.105.058.244.058a.6.6 0 0 0 .215-.04.37.37 0 0 0 .172-.157q.073-.118.115-.333.042-.214.042-.565h.87q0 .351-.054.665a1.5 1.5 0 0 1-.203.55q-.147.237-.416.37-.27.133-.698.133-.49 0-.78-.157a1.06 1.06 0 0 1-.444-.454 2 2 0 0 1-.2-.708 8 8 0 0 1-.044-.908q0-.49.045-.904.045-.416.2-.711.153-.297.443-.463t.78-.167q.465 0 .734.152.27.15.402.384.133.233.166.502.033.27.033.505h-.87q0-.472-.112-.687M4.985 21.764a.9.9 0 0 0-.064-.242.34.34 0 0 0-.127-.151.4.4 0 0 0-.208-.052.35.35 0 0 0-.339.209.8.8 0 0 0-.069.209 1.3 1.3 0 0 0-.021.23v.127h.852a4 4 0 0 0-.024-.33m-.828 1.086q0 .145.021.281a1 1 0 0 0 .07.242.46.46 0 0 0 .126.17.3.3 0 0 0 .194.063q.21 0 .308-.15.096-.153.133-.46h.749q-.024.568-.302.865-.279.296-.876.296-.453 0-.707-.151a.94.94 0 0 1-.375-.4 1.6 1.6 0 0 1-.148-.556 7 7 0 0 1-.027-.617q0-.327.045-.63t.182-.538a1 1 0 0 1 .39-.376q.252-.139.676-.139.363 0 .595.118.233.119.366.333t.18.52q.05.306.05.681v.188h-1.65zM7.1 20.835v.381h.011a.85.85 0 0 1 .345-.354q.21-.111.483-.112.399 0 .613.218.215.217.215.708v2.415h-.834v-2.245q0-.255-.085-.355-.084-.1-.272-.1-.44 0-.44.54v2.16h-.834v-3.256zM10.398 19.903v.932h.483v.569h-.483v1.76q0 .195.057.276.058.082.24.082a2 2 0 0 0 .186-.012v.58a4 4 0 0 0-.268.01 4 4 0 0 1-.275.009q-.242 0-.396-.033a.4.4 0 0 1-.236-.134.6.6 0 0 1-.111-.263q-.03-.163-.03-.411v-1.864H9.14v-.569h.423v-.932zM12.772 21.764a.8.8 0 0 0-.063-.242.34.34 0 0 0-.127-.151.4.4 0 0 0-.208-.052.35.35 0 0 0-.339.209.8.8 0 0 0-.07.209 1.3 1.3 0 0 0-.02.23v.127h.851a4 4 0 0 0-.024-.33m-.827 1.086q0 .145.02.281a1 1 0 0 0 .07.242q.05.107.127.17a.3.3 0 0 0 .194.063q.21 0 .308-.15.096-.153.132-.46h.75q-.024.568-.302.865-.277.296-.876.296-.453 0-.707-.151a.94.94 0 0 1-.375-.4 1.6 1.6 0 0 1-.148-.556 7 7 0 0 1-.027-.617q0-.327.045-.63t.181-.538a1 1 0 0 1 .39-.376q.254-.139.677-.139.363 0 .595.118.233.119.365.333.135.215.182.52.048.306.048.681v.188h-1.65zM14.887 20.835v.436h.012q.127-.237.308-.379a.7.7 0 0 1 .441-.142 1 1 0 0 1 .151.012v.8a3 3 0 0 0-.26-.013.8.8 0 0 0-.217.03.6.6 0 0 0-.2.1.5.5 0 0 0-.144.182.6.6 0 0 0-.055.275v1.955h-.834v-3.256zM17.43 21.404v-.569h.423v-.37q0-.216.061-.368a.6.6 0 0 1 .172-.242.7.7 0 0 1 .275-.13q.164-.04.363-.04.223 0 .447.018v.593a.5.5 0 0 0-.085-.006h-.078q-.176 0-.248.06-.072.062-.073.2v.285h.484v.569h-.484v2.687h-.834v-2.687zM20.258 22.923q.012.211.058.363.045.151.135.236a.34.34 0 0 0 .242.084q.255 0 .35-.266.097-.266.097-.877t-.096-.878q-.098-.266-.35-.266a.34.34 0 0 0-.243.085.5.5 0 0 0-.135.236q-.046.15-.058.363a8 8 0 0 0 0 .92m-.78-1.199q.067-.32.218-.535a.97.97 0 0 1 .396-.327 1.4 1.4 0 0 1 .601-.112q.375-.006.623.1.247.106.392.324t.206.538.06.75q0 .419-.066.739a1.4 1.4 0 0 1-.218.535.9.9 0 0 1-.396.318 1.6 1.6 0 0 1-.6.103 1.6 1.6 0 0 1-.623-.093.84.84 0 0 1-.393-.315 1.4 1.4 0 0 1-.205-.539 4 4 0 0 1-.06-.747q0-.418.066-.739M23.279 20.835v.436h.012q.127-.237.308-.379a.7.7 0 0 1 .441-.142 1 1 0 0 1 .151.012v.8a3 3 0 0 0-.26-.013.8.8 0 0 0-.217.03.6.6 0 0 0-.2.1.5.5 0 0 0-.144.182.6.6 0 0 0-.055.275v1.955h-.833v-3.256zM28.39 20.484h-.942v3.607h-.87v-3.607h-.943v-.714h2.756zM29.895 21.764a.9.9 0 0 0-.063-.242.34.34 0 0 0-.127-.151.4.4 0 0 0-.209-.052.35.35 0 0 0-.208.058.4.4 0 0 0-.13.15.7.7 0 0 0-.07.21 1.3 1.3 0 0 0-.02.23v.127h.851a4 4 0 0 0-.024-.33m-.828 1.086q0 .145.022.281.02.137.069.242.048.107.127.17a.3.3 0 0 0 .193.063q.212 0 .308-.15.097-.153.133-.46h.75q-.026.568-.303.865-.277.296-.876.296-.453 0-.707-.151a.94.94 0 0 1-.374-.4 1.6 1.6 0 0 1-.148-.556 7 7 0 0 1-.028-.617q0-.327.046-.63.045-.303.181-.538a1 1 0 0 1 .39-.376q.253-.139.676-.139.363 0 .596.118.232.119.365.333t.181.52q.05.306.049.681v.188h-1.65zM32.762 21.773a.8.8 0 0 0-.055-.209.4.4 0 0 0-.111-.151.3.3 0 0 0-.194-.058q-.15 0-.247.07a.4.4 0 0 0-.145.206q-.05.135-.067.345a6 6 0 0 0-.018.493q0 .303.018.517t.067.354.135.203a.38.38 0 0 0 .227.063q.212 0 .308-.181.097-.182.097-.581h.798q0 .642-.287.977-.288.336-.952.336-.315 0-.547-.075a.8.8 0 0 1-.387-.273 1.36 1.36 0 0 1-.232-.526 3.6 3.6 0 0 1-.079-.82q0-.502.097-.832.096-.33.272-.527a.94.94 0 0 1 .417-.275 1.7 1.7 0 0 1 .532-.079q.58 0 .872.34.294.338.294.919h-.798q0-.121-.015-.236M34.904 19.77v1.398h.012q.241-.417.791-.418.399 0 .613.218.215.218.215.708v2.415h-.834v-2.246q0-.254-.084-.353-.085-.1-.272-.1-.441 0-.441.538v2.16h-.834v-4.32zM37.949 20.835v.381h.012a.85.85 0 0 1 .344-.354q.211-.111.484-.112.399 0 .613.218.215.217.215.708v2.415h-.834v-2.245q0-.255-.085-.355-.084-.1-.272-.1-.441 0-.441.54v2.16h-.834v-3.256zM40.97 22.923q.012.211.057.363.045.151.136.236a.34.34 0 0 0 .242.084q.254 0 .35-.266.097-.266.097-.877t-.097-.878-.35-.266a.34.34 0 0 0-.242.085.5.5 0 0 0-.136.236q-.046.15-.057.363a8 8 0 0 0 0 .92m-.78-1.199q.067-.32.218-.535a.97.97 0 0 1 .396-.327q.244-.112.6-.112.375-.006.623.1t.393.324q.144.218.205.538.06.321.06.75 0 .419-.066.739a1.4 1.4 0 0 1-.217.535.9.9 0 0 1-.396.318 1.6 1.6 0 0 1-.601.103 1.6 1.6 0 0 1-.623-.093.84.84 0 0 1-.392-.315 1.4 1.4 0 0 1-.206-.539 4 4 0 0 1-.06-.747q0-.418.067-.739M43.223 24.09h.834v-4.32h-.834zM45.44 22.923q.013.211.058.363.045.151.136.236a.34.34 0 0 0 .242.084q.254 0 .35-.266.097-.266.097-.877t-.097-.878-.35-.266a.34.34 0 0 0-.242.085.5.5 0 0 0-.136.236q-.046.15-.057.363a8 8 0 0 0 0 .92m-.78-1.199q.067-.32.218-.535a.97.97 0 0 1 .395-.327q.245-.112.602-.112.375-.006.622.1.248.106.393.324.144.218.205.538.06.321.06.75 0 .419-.066.739a1.4 1.4 0 0 1-.217.535.9.9 0 0 1-.396.318 1.6 1.6 0 0 1-.601.103 1.6 1.6 0 0 1-.623-.093.84.84 0 0 1-.392-.315 1.4 1.4 0 0 1-.206-.539 4 4 0 0 1-.06-.747q0-.418.066-.739M48.447 22.886q.015.152.06.27.045.117.127.187.081.07.214.07a.34.34 0 0 0 .22-.07.5.5 0 0 0 .14-.19q.051-.122.072-.294.022-.172.022-.378 0-.593-.094-.841-.095-.248-.342-.248a.38.38 0 0 0-.223.06.4.4 0 0 0-.133.197q-.049.136-.063.363a8 8 0 0 0-.016.554q0 .17.016.32m1.652 1.041q0 .63-.311.944-.312.315-1.042.315-.532 0-.82-.227-.286-.226-.286-.645h.798q0 .157.126.249.06.042.13.066a.5.5 0 0 0 .148.024q.254 0 .357-.163a.75.75 0 0 0 .103-.405v-.43h-.013a1 1 0 0 1-.31.29.74.74 0 0 1-.384.11q-.496 0-.746-.379-.252-.378-.251-1.268 0-.285.033-.58.033-.297.139-.536.105-.24.308-.39.202-.152.54-.152.176 0 .363.097a.72.72 0 0 1 .308.351h.013v-.363h.797zM51.023 24.532q.23 0 .33-.12a.57.57 0 0 0 .117-.321l-.912-3.256h.87l.483 2.251h.013l.423-2.25h.833l-.785 3.037q-.11.405-.208.656a1.1 1.1 0 0 1-.236.388q-.137.135-.326.178a2.3 2.3 0 0 1-.48.042h-.34v-.623q.11.018.218.018M56.213 21.125l.103.146.157-.133a.8.8 0 0 0 .208-.24.5.5 0 0 0 .064-.232q0-.176-.106-.27a.4.4 0 0 0-.275-.094.4.4 0 0 0-.263.091q-.105.09-.105.26 0 .182.217.472m-.432 1.435a.75.75 0 0 0-.093.369.565.565 0 0 0 .344.517.6.6 0 0 0 .26.052q.345 0 .562-.273l-.725-1.029q-.255.194-.348.364m1.683-.218q.042-.188.042-.327h.75q0 .351-.124.675a2.8 2.8 0 0 1-.318.602l.568.799h-.924l-.242-.333a1.03 1.03 0 0 1-.438.296 1.7 1.7 0 0 1-.601.103q-.405 0-.664-.118a1.05 1.05 0 0 1-.605-.71 1.7 1.7 0 0 1-.054-.4q0-.381.233-.687.232-.306.637-.56l-.151-.224a3 3 0 0 1-.148-.236 1.01 1.01 0 0 1-.142-.545q0-.21.081-.378a.84.84 0 0 1 .227-.284q.145-.119.347-.181.203-.064.444-.064.279 0 .48.07.203.069.336.193a.8.8 0 0 1 .197.288q.063.164.063.35a1 1 0 0 1-.184.588 2.4 2.4 0 0 1-.565.532l.646.878q.066-.14.109-.327M1.474 25.821l.617 3.05h.012l.622-3.05h1.287v4.321h-.798v-3.45h-.012l-.767 3.45h-.677l-.767-3.45H.979v3.45H.18v-4.32zM6.006 28.62a1 1 0 0 1-.176.057q-.254.055-.362.182a.5.5 0 0 0-.109.345q0 .188.073.32.073.134.241.134a.6.6 0 0 0 .176-.027.466.466 0 0 0 .29-.245.5.5 0 0 0 .048-.23v-.642a.7.7 0 0 1-.181.106m-1.342-.814q0-.285.091-.475A.8.8 0 0 1 5 27.022a1 1 0 0 1 .362-.169q.21-.051.444-.051.375 0 .604.072a.8.8 0 0 1 .357.206.7.7 0 0 1 .172.318q.045.185.045.402v1.713q0 .23.021.357t.082.272H6.29a.7.7 0 0 1-.064-.166l-.04-.173h-.011q-.146.255-.336.33a1.4 1.4 0 0 1-.492.075.8.8 0 0 1-.368-.075.6.6 0 0 1-.242-.209 1 1 0 0 1-.133-.3 1.431 1.431 0 0 1 .006-.726.8.8 0 0 1 .148-.284.8.8 0 0 1 .254-.197q.154-.078.371-.139l.472-.127a.5.5 0 0 0 .26-.133q.072-.085.072-.248a.45.45 0 0 0-.088-.294q-.087-.105-.299-.106-.194 0-.29.115a.46.46 0 0 0-.096.31v.09h-.75zM8.434 26.886v.382h.012a.85.85 0 0 1 .345-.354q.21-.112.483-.112.399 0 .613.217.215.219.215.708v2.415h-.834v-2.245q0-.255-.085-.354-.084-.1-.271-.1-.441 0-.441.539v2.16h-.834v-3.256zM12.053 28.62a1 1 0 0 1-.175.057q-.254.055-.362.182a.5.5 0 0 0-.109.345q0 .188.072.32.074.134.242.134a.6.6 0 0 0 .175-.027.463.463 0 0 0 .29-.245.5.5 0 0 0 .049-.23v-.642a.7.7 0 0 1-.182.106m-1.34-.814q0-.285.09-.475a.8.8 0 0 1 .245-.309 1 1 0 0 1 .362-.169q.208-.051.444-.051.375 0 .604.072a.8.8 0 0 1 .357.206.7.7 0 0 1 .172.318q.045.185.045.402v1.713q0 .23.021.357t.082.272h-.798a.7.7 0 0 1-.063-.166l-.04-.173h-.011q-.146.255-.336.33t-.492.075a.8.8 0 0 1-.369-.075.6.6 0 0 1-.241-.209 1 1 0 0 1-.133-.3 1.3 1.3 0 0 1-.042-.33q0-.23.048-.396a.8.8 0 0 1 .148-.284.8.8 0 0 1 .254-.197q.153-.078.371-.139l.471-.127a.5.5 0 0 0 .26-.133q.073-.085.073-.248a.45.45 0 0 0-.088-.294q-.087-.105-.3-.106-.192 0-.289.115a.46.46 0 0 0-.097.31v.09h-.749zM14.467 28.938q.015.15.06.269.046.118.127.188.082.07.215.07a.34.34 0 0 0 .22-.07.5.5 0 0 0 .14-.19q.051-.123.072-.295a3 3 0 0 0 .021-.378q0-.593-.094-.84-.093-.249-.341-.249a.38.38 0 0 0-.224.06.4.4 0 0 0-.132.197 1.4 1.4 0 0 0-.064.363q-.015.228-.015.554 0 .17.015.32m1.653 1.04q0 .63-.312.944-.311.315-1.042.315-.531 0-.819-.227-.285-.226-.286-.644h.797a.29.29 0 0 0 .127.248q.06.042.13.067a.5.5 0 0 0 .148.024q.254 0 .356-.164a.75.75 0 0 0 .103-.405v-.43h-.012a1 1 0 0 1-.311.29.74.74 0 0 1-.384.11q-.495 0-.746-.378-.25-.379-.25-1.268 0-.285.033-.581.033-.297.139-.536.105-.24.307-.39.203-.15.541-.151.175 0 .363.096.187.098.308.351h.012v-.363h.798zM18.307 27.815a.9.9 0 0 0-.064-.242.34.34 0 0 0-.127-.151.4.4 0 0 0-.208-.052.35.35 0 0 0-.338.21.8.8 0 0 0-.07.208 1.3 1.3 0 0 0-.021.23v.127h.852a4 4 0 0 0-.024-.33m-.828 1.086q0 .145.021.282a1 1 0 0 0 .07.242q.048.105.127.17a.3.3 0 0 0 .193.063q.21 0 .308-.151.096-.152.133-.46h.75q-.025.568-.303.865t-.876.297q-.453 0-.707-.152a.94.94 0 0 1-.375-.4 1.6 1.6 0 0 1-.147-.556 7 7 0 0 1-.028-.617q0-.327.046-.63.045-.301.18-.538a1 1 0 0 1 .39-.375q.255-.14.677-.14.363 0 .595.119.232.118.366.333.133.214.181.52t.049.68v.188h-1.65zM20.421 26.886v.333h.013a.96.96 0 0 1 .353-.32q.196-.097.468-.097.29 0 .487.133.195.133.262.387h.012a.74.74 0 0 1 .312-.39.96.96 0 0 1 .51-.13q.417 0 .614.25.195.253.196.724v2.366h-.834v-2.275a.55.55 0 0 0-.076-.315q-.075-.11-.25-.109a.4.4 0 0 0-.318.133q-.117.133-.117.424v2.142h-.834v-2.275a.55.55 0 0 0-.076-.315q-.075-.11-.25-.109a.4.4 0 0 0-.318.133q-.117.133-.118.424v2.142h-.833v-3.256zM25.805 27.815a.9.9 0 0 0-.064-.242.34.34 0 0 0-.127-.151.4.4 0 0 0-.208-.052.35.35 0 0 0-.209.058.4.4 0 0 0-.13.151.7.7 0 0 0-.069.209 1.3 1.3 0 0 0-.02.23v.127h.85a4 4 0 0 0-.023-.33m-.828 1.086q0 .145.021.282.02.135.07.242.048.105.126.17a.3.3 0 0 0 .194.063q.211 0 .308-.151.097-.152.133-.46h.749q-.024.568-.302.865t-.876.297q-.453 0-.707-.152a.94.94 0 0 1-.375-.4 1.6 1.6 0 0 1-.148-.556 7 7 0 0 1-.027-.617q0-.327.046-.63.045-.301.18-.538a1 1 0 0 1 .39-.375q.255-.14.677-.14.363 0 .595.119.233.118.366.333.133.214.181.52t.049.68v.188h-1.65zM27.92 26.886v.382h.011a.85.85 0 0 1 .345-.354q.21-.112.483-.112.399 0 .613.217.215.219.215.708v2.415h-.834v-2.245q0-.255-.084-.354-.085-.1-.272-.1-.441 0-.441.539v2.16h-.834v-3.256zM31.218 25.955v.931h.484v.57h-.484v1.76q0 .194.058.275t.238.082a2 2 0 0 0 .188-.012v.58q-.14 0-.27.01a4 4 0 0 1-.274.01q-.242 0-.396-.034a.4.4 0 0 1-.236-.133.6.6 0 0 1-.111-.263q-.03-.165-.03-.412v-1.864h-.423v-.569h.422v-.931zM35.997 26.535h-1.54v1.017h1.45v.714h-1.45v1.162h1.6v.714h-2.47v-4.32h2.41zM37.366 29.316q.081.27.353.27.277 0 .36-.27.081-.27.081-.802t-.081-.802-.36-.269q-.272 0-.353.27-.082.269-.082.801 0 .533.082.802m.818.481a.84.84 0 0 1-.31.32.9.9 0 0 1-.427.092q-.513 0-.755-.394-.242-.393-.242-1.3 0-.91.242-1.31.242-.404.755-.403.235 0 .402.097.165.096.3.29h.011V25.82h.834v4.32h-.798v-.344zM41.266 29.76a.8.8 0 0 1-.345.346 1.1 1.1 0 0 1-.483.103q-.399 0-.613-.21-.215-.207-.215-.698v-2.415h.834v2.245q0 .255.085.354.084.1.271.1.442 0 .442-.538v-2.16h.833v3.255h-.797v-.381zM44.241 27.824a.8.8 0 0 0-.054-.208.4.4 0 0 0-.112-.152.3.3 0 0 0-.193-.057q-.15 0-.248.07a.4.4 0 0 0-.145.205q-.048.136-.066.345a6 6 0 0 0-.018.493q0 .303.018.517.018.216.066.355.049.138.136.202a.38.38 0 0 0 .227.064q.21 0 .308-.182.096-.18.097-.58h.797q0 .64-.287.977-.288.336-.952.335-.314 0-.546-.075a.8.8 0 0 1-.387-.272 1.35 1.35 0 0 1-.233-.527 3.6 3.6 0 0 1-.078-.82q0-.502.096-.832a1.35 1.35 0 0 1 .272-.527.94.94 0 0 1 .417-.275q.242-.078.532-.078.58 0 .873.338.293.34.293.92h-.797q0-.12-.016-.236M46.885 28.62a1 1 0 0 1-.175.057q-.254.055-.363.182a.5.5 0 0 0-.109.345.66.66 0 0 0 .073.32q.073.134.241.134a.6.6 0 0 0 .176-.027.466.466 0 0 0 .29-.245.5.5 0 0 0 .048-.23v-.642a.8.8 0 0 1-.181.106m-1.342-.814q0-.285.09-.475a.8.8 0 0 1 .246-.309 1 1 0 0 1 .362-.169q.21-.051.444-.051.374 0 .605.072a.8.8 0 0 1 .356.206.7.7 0 0 1 .172.318q.045.185.046.402v1.713q0 .23.02.357.022.126.082.272h-.797a.7.7 0 0 1-.064-.166l-.039-.173h-.012q-.146.255-.335.33-.191.075-.493.075a.8.8 0 0 1-.369-.075.6.6 0 0 1-.24-.209 1 1 0 0 1-.134-.3 1.437 1.437 0 0 1 .006-.726.8.8 0 0 1 .148-.284.8.8 0 0 1 .254-.197q.154-.078.371-.139l.472-.127a.5.5 0 0 0 .26-.133q.072-.085.072-.248a.45.45 0 0 0-.088-.294q-.087-.105-.299-.106-.193 0-.29.115a.46.46 0 0 0-.096.31v.09h-.75zM49.531 25.955v.931h.483v.57h-.483v1.76q0 .194.057.275.058.082.239.082a2 2 0 0 0 .187-.012v.58q-.138 0-.269.01a4 4 0 0 1-.274.01q-.243 0-.396-.034a.4.4 0 0 1-.236-.133.6.6 0 0 1-.111-.263q-.03-.165-.03-.412v-1.864h-.424v-.569h.423v-.931zM50.395 30.142h1.252v-3.255h-1.252zm0-3.655h1.252v-.714h-1.252zM52.612 28.974q.013.212.057.363.045.152.137.236.09.085.241.085.255 0 .35-.266.097-.267.097-.878t-.096-.877q-.098-.267-.35-.267a.34.34 0 0 0-.242.085.5.5 0 0 0-.137.236q-.045.152-.057.363a8 8 0 0 0 0 .92m-.78-1.198a1.4 1.4 0 0 1 .218-.536.96.96 0 0 1 .396-.326 1.4 1.4 0 0 1 .601-.112q.375-.006.622.1a.87.87 0 0 1 .393.323q.145.218.206.539.06.321.06.75 0 .418-.066.738a1.4 1.4 0 0 1-.218.536.9.9 0 0 1-.396.318 1.6 1.6 0 0 1-.6.102 1.6 1.6 0 0 1-.623-.093.84.84 0 0 1-.393-.315 1.4 1.4 0 0 1-.205-.538 4 4 0 0 1-.06-.748q0-.417.066-.738M55.633 26.886v.382h.012a.85.85 0 0 1 .345-.354q.21-.112.483-.112.399 0 .613.217.215.219.215.708v2.415h-.834v-2.245q0-.255-.085-.354-.084-.1-.272-.1-.44 0-.44.539v2.16h-.834v-3.256z"/></g></g></svg>