<svg xmlns:xlink="http://www.w3.org/1999/xlink" xmlns="http://www.w3.org/2000/svg" width="69" height="73" fill="none"><path fill="#51565E" d="M5.593 43.09s.233-.31.504-.775c.116-.233.271-.504.388-.814s.232-.66.271-1.008c.039-.194.039-.35.039-.504v-.504c-.039-.31-.078-.62-.155-.853-.078-.232-.116-.465-.155-.62s-.078-.233-.078-.233-.31.233-.62.66c-.039.038-.078.116-.116.154-.04.078-.078.117-.117.194a4 4 0 0 0-.232.427c-.155.31-.272.659-.31 1.046zM5.283 43.168s-.504-.194-1.202-.66c-.155-.116-.349-.232-.542-.387s-.35-.31-.543-.504a4 4 0 0 1-.504-.62l-.233-.349a1.8 1.8 0 0 1-.193-.388c-.543-1.085-.66-2.248-.62-3.14.038-.891.193-1.472.193-1.472s.465.348 1.047.93c.31.31.581.659.93 1.046.155.194.31.427.465.66.155.232.272.465.388.736zM8.346 50.107s.038-.078.077-.233c.078-.155.155-.388.194-.62.077-.271.155-.582.155-.892 0-.077 0-.155.039-.232v-.8140000000000001c-.078-.698-.31-1.357-.582-1.784a.3.3 0 0 1-.077-.155c-.04-.038-.04-.116-.078-.155-.039-.077-.116-.155-.155-.232-.077-.117-.155-.194-.155-.194s-.233.31-.426.814c-.117.233-.194.543-.272.892-.038.155-.038.348-.077.503v.543zM8.074 50.261h-.116c-.078 0-.155-.039-.272-.039a4.7 4.7 0 0 1-.969-.271 6.4 6.4 0 0 1-2.558-1.706 5 5 0 0 1-.504-.736c-.078-.117-.155-.233-.233-.388-.077-.116-.116-.271-.194-.388-.116-.232-.193-.503-.271-.736a5 5 0 0 1-.194-.698c-.077-.426-.155-.814-.155-1.046 0-.117 0-.233-.039-.31v-.117s.04 0 .078.039c.077.039.155.078.271.116.233.116.543.272.892.504q.523.35 1.163.814c.194.155.387.35.581.504.078.078.194.194.272.31.077.117.193.194.27.31zM12.803 56.192s0-.078.04-.272c0-.155.038-.387.038-.659 0-.271 0-.581-.039-.93-.039-.155-.039-.349-.077-.504-.04-.155-.078-.349-.155-.504-.117-.349-.31-.62-.466-.891a3.3 3.3 0 0 0-.542-.698c-.194-.194-.35-.35-.465-.427a.9.9 0 0 0-.194-.155s-.039.078-.078.233-.116.388-.155.659-.039.581-.039.93c0 .155.04.35.078.543.039.194.077.349.155.543zM12.57 56.424s-.155.04-.387.04h-.427c-.155 0-.348 0-.542-.04a7.3 7.3 0 0 1-1.396-.271c-.504-.155-1.008-.426-1.512-.736-.504-.35-.891-.776-1.279-1.202a7 7 0 0 1-.814-1.28c-.194-.387-.31-.736-.426-1.007-.078-.233-.117-.388-.117-.388s.582.078 1.357.31c.194.078.388.116.62.233.233.077.466.155.698.271l.698.349c.232.116.465.271.698.426zM18.618 60.999s-.039-.388-.155-.892c-.078-.271-.155-.581-.271-.891a3.7 3.7 0 0 0-.504-.93c-.194-.31-.427-.543-.66-.776-.077-.039-.116-.116-.193-.155-.078-.039-.116-.116-.155-.155l-.349-.233c-.233-.155-.426-.232-.543-.31l-.232-.116v.271c0 .155 0 .388.038.66.04.27.078.58.194.89.039.156.117.311.194.505.078.155.155.31.271.465zM18.463 61.31l-.35.115a9 9 0 0 1-.968.233c-.388.078-.892.078-1.396.078-.116 0-.271 0-.388-.04-.116 0-.27-.038-.426-.077-.271-.077-.543-.155-.853-.232-.155-.04-.271-.117-.426-.155-.117-.078-.272-.117-.388-.194-.232-.155-.504-.31-.698-.465-.232-.155-.426-.35-.62-.504s-.349-.35-.504-.504c-.31-.31-.504-.62-.659-.853l-.232-.349s.581-.077 1.395-.039c.427 0 .892.04 1.396.155.504.078 1.046.194 1.55.427zM25.402 64.217s-.117-.388-.388-.853-.62-1.085-1.202-1.55c-.155-.117-.271-.233-.426-.31-.155-.078-.272-.195-.427-.272s-.271-.116-.426-.194c-.155-.039-.271-.116-.388-.155-.465-.155-.852-.233-.852-.233s.038.388.232.892c.078.233.233.543.388.814.194.271.426.581.697.814zM25.324 64.527s-.426.349-1.202.697a3 3 0 0 1-.31.117c-.116.038-.194.077-.31.116-.232.078-.465.116-.736.194l-.814.116c-.272 0-.582 0-.892-.039a7 7 0 0 1-.891-.155c-.272-.077-.543-.194-.814-.271a6 6 0 0 1-.698-.349c-.233-.116-.427-.271-.62-.388-.35-.232-.66-.465-.853-.659l-.31-.31s.155-.038.387-.116c.233-.078.582-.155.97-.233a13 13 0 0 1 1.395-.193c.504-.04 1.046-.078 1.628 0zM25.712 6.69s.077.04.233.155c.077.04.155.078.27.155.117.04.195.117.35.194.232.117.542.233.852.35.156.038.31.077.505.115.154.04.348.078.542.078.35.039.698 0 1.008-.039s.62-.116.853-.194q.349-.116.581-.232l.233-.117-.194-.193a3 3 0 0 0-.504-.388 4 4 0 0 0-.814-.426 2 2 0 0 0-.504-.155c-.194-.04-.349-.078-.543-.078z"/><path fill="#51565E" d="M25.712 6.806s.039-.155.116-.349c.078-.232.233-.542.427-.891s.504-.737.852-1.124c.35-.388.815-.737 1.318-1.047.543-.271 1.086-.504 1.628-.62.543-.116 1.047-.155 1.474-.194.426 0 .814.039 1.085.039.271.039.426.039.426.039s-.31.504-.891 1.085c-.271.31-.62.659-1.008.97-.194.154-.427.387-.93.736zM18.657 10.218s.077.039.232.077c.155.04.388.117.66.155.27.04.58.117.89.117.35.038.66 0 1.047-.039.35-.039.698-.155.97-.31.31-.116.542-.271.775-.388s.388-.271.504-.349.194-.155.194-.155l-.233-.116c-.155-.078-.349-.155-.62-.271-.271-.078-.543-.155-.892-.194-.155-.039-.349-.039-.542-.039s-.35.039-.543.039zM18.463 9.946s0-.155.039-.388c.038-.232.077-.581.194-.969.116-.388.27-.853.542-1.318.233-.465.582-.93 1.008-1.357l.155-.155c.039-.038.116-.077.155-.155.116-.077.233-.194.349-.271.233-.155.465-.31.737-.465.503-.272.969-.427 1.395-.543.194-.077.427-.116.582-.155.193-.039.348-.078.465-.078.271-.038.426-.038.426-.038s-.194.542-.581 1.279c-.04.077-.117.194-.155.271-.04.117-.117.194-.155.31-.117.194-.272.427-.388.62-.155.194-.31.427-.465.62a8 8 0 0 1-.543.621zM12.842 15.025s.387.038.93 0c.116 0 .271-.04.427-.04s.31-.038.465-.077c.31-.077.659-.155 1.008-.31.659-.271 1.162-.736 1.511-1.085.35-.35.543-.698.543-.698s-.349-.116-.892-.155a3.7 3.7 0 0 0-.93 0c-.349.039-.698.155-1.046.271zM12.57 14.792s-.115-.543-.115-1.357c0-.427.077-.892.193-1.396a5.3 5.3 0 0 1 .66-1.55c.31-.543.697-.97 1.124-1.318.116-.078.193-.194.31-.272.116-.077.193-.155.31-.232.194-.155.387-.272.581-.388s.35-.232.543-.31c.155-.078.31-.155.426-.194.233-.116.388-.155.388-.155s0 .155-.039.388c-.038.232-.116.581-.194 1.008-.077.426-.232.891-.387 1.356-.039.117-.078.233-.155.35-.039.116-.117.232-.155.387-.117.232-.233.504-.388.736zM8.384 21.11s.388-.038.892-.193a5 5 0 0 0 .853-.35c.31-.154.62-.31.891-.542.272-.232.543-.465.737-.736.116-.117.194-.233.271-.388l.233-.349c.271-.426.387-.775.387-.775s-.387-.04-.891.077a4.04 4.04 0 0 0-1.822.776zM8.074 20.956s-.271-.504-.426-1.318a22 22 0 0 1-.117-.66c-.038-.232-.038-.464-.038-.736s0-.542.038-.814a7 7 0 0 1 .194-.852c.078-.272.194-.582.31-.815.117-.27.272-.503.427-.736s.31-.427.465-.66c.155-.193.31-.348.504-.503q.465-.465.814-.698c.194-.155.349-.232.349-.232s.039.155.039.387c0 .117.038.272.038.427s.04.349.04.581c0 .427 0 .892-.078 1.396a8.2 8.2 0 0 1-.31 1.589zM5.593 28.127s.35-.155.814-.427c.233-.155.504-.31.737-.542s.504-.466.736-.737c.117-.155.194-.31.272-.426.077-.155.155-.31.232-.427.117-.271.233-.581.272-.814.077-.232.116-.465.155-.62s.038-.233.038-.233-.387.078-.852.272c-.272.116-.504.271-.776.465a3.5 3.5 0 0 0-.775.736zM5.283 28.05l-.078-.078a.6.6 0 0 1-.155-.233c-.155-.193-.31-.465-.504-.852a5.2 5.2 0 0 1-.504-1.318 5 5 0 0 1-.155-.814c0-.155-.038-.272-.038-.427v-.426c.038-1.202.504-2.326.969-3.063.232-.387.465-.697.62-.891.078-.117.155-.194.194-.233l.077-.077s0 .038.04.077c.038.078.077.155.115.272.078.232.194.581.31.969.194.814.427 1.86.388 2.985zM4.663 35.609s.31-.233.697-.62q.291-.291.582-.698c.194-.272.387-.582.504-.892a4.9 4.9 0 0 0 .349-1.86c0-.272 0-.466-.04-.62 0-.156-.038-.233-.038-.233s-.349.155-.775.503a5.2 5.2 0 0 0-.66.66c-.115.116-.193.27-.31.426-.077.155-.193.31-.27.504zM4.314 35.608s-.465-.31-1.008-.93c-.271-.31-.581-.698-.814-1.163a13 13 0 0 1-.349-.737 5.5 5.5 0 0 1-.271-.852c-.078-.31-.078-.582-.116-.892 0-.271-.04-.582 0-.853a7.7 7.7 0 0 1 .27-1.473c.272-.853.544-1.395.544-1.395s.387.465.775 1.162c.116.194.194.388.31.582s.233.426.31.659c.116.232.194.465.271.736.04.117.078.272.117.388.038.116.077.271.116.427z"/><path fill="#51565E" d="M33.426 70.302c-.117 0-.194-.039-.272-.155-1.899-3.217-4.845-4.613-6.977-5.233C13.23 61.154 4.159 49.098 4.159 35.569a30.57 30.57 0 0 1 6.861-19.266c4.342-5.35 10.428-9.11 17.134-10.544.155-.038.349.078.349.233.038.155-.078.349-.233.349C14.664 9.326 4.78 21.614 4.78 35.569c0 13.219 8.877 25.042 21.553 28.725 3.217.93 5.776 2.83 7.326 5.504.078.155.04.35-.116.427 0 .077-.077.077-.116.077"/><path fill="#D0D2D3" d="M55.56 36.887H12.88v.5h42.68z"/><path fill="#212120" d="M16.835 35.219v-3.14l-1.357 2.054h-.038l-1.357-2.054v3.14h-1.047v-4.846H14.2l1.28 2.055 1.279-2.055h1.162v4.846zM24.084 35.22l-.426-1.085h-2.055l-.426 1.085H20.09l2.055-4.884h.969l2.054 4.884zm-1.473-3.605-.659 1.55h1.28zM29.162 35.298a3.15 3.15 0 0 1-2.055-.776l.62-.736c.427.349.892.581 1.435.581.426 0 .698-.155.698-.465 0-.271-.155-.426-.97-.62-.968-.233-1.589-.504-1.589-1.473 0-.892.698-1.473 1.706-1.473.698 0 1.318.233 1.783.62l-.543.814c-.426-.31-.852-.465-1.24-.465s-.62.194-.62.427c0 .31.194.426 1.046.62.97.271 1.55.62 1.55 1.434-.038.97-.774 1.512-1.821 1.512M35.52 31.344v3.877h-1.047v-3.877H33v-.969h3.993v.97zM39.202 35.22v-4.845h3.644v.93h-2.597v.97h2.287v.93h-2.287v1.008h2.636v.93h-3.683zM48.35 35.22l-1.046-1.55h-.853v1.55h-1.047v-4.845h2.21c1.124 0 1.822.62 1.822 1.59 0 .775-.427 1.279-1.047 1.511l1.163 1.745zm0-3.178c0-.465-.31-.698-.852-.698H46.45v1.396h1.085c.543 0 .814-.272.814-.698M53.584 35.298a3.15 3.15 0 0 1-2.055-.776l.62-.736c.427.349.892.581 1.435.581.426 0 .698-.155.698-.465 0-.271-.155-.426-.97-.62-.969-.233-1.589-.504-1.589-1.473 0-.892.698-1.473 1.706-1.473.697 0 1.318.233 1.783.62l-.543.814c-.426-.31-.853-.465-1.24-.465-.427 0-.62.194-.62.427 0 .31.193.426 1.046.62.97.271 1.55.62 1.55 1.434-.038.97-.775 1.512-1.821 1.512M14.897 42.197h-.814v1.435h-1.047v-4.846h1.977c1.163 0 1.86.698 1.86 1.667 0 1.163-.89 1.744-1.976 1.744m.891-1.705c0-.465-.348-.737-.852-.737h-.815v1.473h.853c.504 0 .814-.31.814-.736M21.603 43.632l-1.047-1.55h-.853v1.55h-1.046v-4.846h2.21c1.124 0 1.821.62 1.821 1.59 0 .775-.426 1.279-1.046 1.511l1.163 1.745zm0-3.179c0-.465-.31-.698-.853-.698h-1.047v1.396h1.086c.504 0 .814-.272.814-.698M26.953 43.71c-1.512 0-2.559-1.125-2.559-2.481 0-1.357 1.085-2.52 2.597-2.52s2.559 1.124 2.559 2.48c-.04 1.396-1.125 2.52-2.597 2.52m1.473-2.481c0-.814-.62-1.512-1.473-1.512s-1.435.659-1.435 1.512c0 .814.62 1.511 1.473 1.511.814 0 1.435-.659 1.435-1.511M33.775 43.71c-1.512 0-2.558-1.047-2.558-2.481a2.514 2.514 0 0 1 2.52-2.52c.852 0 1.395.233 1.899.659l-.66.814c-.387-.31-.697-.504-1.278-.504-.776 0-1.396.698-1.396 1.512 0 .892.62 1.55 1.473 1.55.388 0 .737-.116 1.008-.27v-.699h-1.085v-.93h2.093v2.093c-.426.466-1.124.776-2.016.776M40.869 43.632l-1.047-1.55h-.853v1.55h-1.046v-4.846h2.21c1.124 0 1.821.62 1.821 1.59 0 .775-.426 1.279-1.046 1.511l1.163 1.745zm.039-3.179c0-.465-.31-.698-.853-.698h-1.047v1.396h1.086c.504 0 .814-.272.814-.698M47.653 43.632l-.426-1.085h-2.055l-.426 1.085H43.66l2.093-4.884h.97l2.054 4.884zm-1.473-3.566-.66 1.55h1.28zM54.281 43.632v-3.14l-1.356 2.054h-.04l-1.356-2.054v3.14h-1.047v-4.846h1.163l1.28 2.055 1.279-2.055h1.163v4.846z"/><path fill="#FFC013" d="m20.428 48.638.618 1.896h2.028l-1.632 1.234.618 1.985-1.632-1.191-1.631 1.19.617-1.984-1.631-1.234h2.028zM27.616 48.638l.617 1.896h2.028l-1.631 1.234.617 1.985-1.631-1.191-1.676 1.19.661-1.984-1.675-1.234h2.028zM34.759 48.638l.661 1.896h2.029l-1.632 1.234.617 1.985-1.675-1.191-1.632 1.19.618-1.984-1.632-1.234h2.029zM41.946 48.638l.617 1.896h2.073l-1.676 1.234.617 1.985-1.631-1.191-1.632 1.19.618-1.984-1.632-1.234h2.029zM49.133 48.638l.617 1.896h2.029l-1.632 1.234.617 1.985-1.63-1.191-1.632 1.19.617-1.984-1.676-1.234h2.073zM33.548 22.856c3.312 0 6.1.175 7.016.393l1.743-8.89s-3.965 3.486-5.055 3.486c-1.133 0-3.704-2.44-3.704-2.44s-2.483 2.44-3.53 2.44c-1.088 0-5.184-3.486-5.184-3.486l1.742 8.89c.872-.218 3.66-.393 6.972-.393M33.548 23.946c-4.052 0-7.364.262-7.364.523H40.87c0-.305-3.268-.523-7.32-.523"/><path fill="#51565E" d="M62.648 43.09s-.233-.31-.504-.775c-.116-.233-.271-.504-.387-.814-.117-.31-.233-.66-.272-1.008-.039-.194-.039-.35-.039-.504v-.504c.04-.31.078-.62.155-.853.078-.232.117-.465.156-.62s.077-.233.077-.233.31.233.62.66c.039.038.078.116.117.154.038.078.077.117.116.194.077.117.155.272.232.427a3 3 0 0 1 .31 1.046zM62.958 43.168s.504-.194 1.202-.66c.155-.116.349-.232.543-.387s.349-.31.542-.504.35-.387.504-.62l.233-.349c.077-.116.155-.271.194-.388.542-1.085.659-2.248.62-3.14s-.194-1.472-.194-1.472-.465.348-1.047.93c-.31.31-.581.659-.93 1.046-.155.194-.31.427-.465.66a4.4 4.4 0 0 0-.388.736zM59.896 50.107s-.04-.078-.078-.233a2.3 2.3 0 0 1-.194-.62c-.077-.271-.155-.582-.155-.892 0-.077 0-.155-.038-.232v-.8140000000000001c.077-.698.31-1.357.581-1.784a.3.3 0 0 0 .078-.155c.038-.038.038-.116.077-.155.039-.077.116-.155.155-.232.078-.117.155-.194.155-.194s.233.31.427.814c.116.233.193.543.27.892.04.155.04.348.078.503v.543zM60.167 50.261h.117c.077 0 .155-.039.271-.039.233-.038.581-.116.97-.271a6.4 6.4 0 0 0 2.557-1.706c.194-.232.35-.465.505-.736.077-.117.154-.233.232-.388.078-.116.116-.271.194-.388.116-.232.194-.503.271-.736s.155-.465.194-.698c.078-.426.155-.814.155-1.046 0-.117 0-.233.039-.31v-.117s-.039 0-.078.039a2 2 0 0 1-.271.116 8 8 0 0 0-.892.504q-.523.35-1.162.814c-.194.155-.388.35-.582.504a2.2 2.2 0 0 0-.271.31c-.078.117-.194.194-.272.31zM55.438 56.192s0-.078-.039-.272c0-.155-.039-.387-.039-.659 0-.271 0-.581.039-.93.039-.155.039-.349.078-.504.038-.155.077-.349.155-.504.116-.349.31-.62.465-.891a3.3 3.3 0 0 1 .542-.698c.194-.194.35-.35.466-.427.116-.116.194-.155.194-.155s.038.078.077.233.116.388.155.659.039.581.039.93c0 .155-.039.35-.078.543a3 3 0 0 1-.155.543zM55.67 56.424s.156.04.388.04h.427c.155 0 .349 0 .543-.04a7.3 7.3 0 0 0 1.395-.271c.504-.155 1.008-.426 1.512-.736.504-.35.891-.776 1.279-1.202.349-.427.62-.892.814-1.28.194-.387.31-.736.427-1.007a6 6 0 0 0 .116-.388s-.582.078-1.357.31c-.194.078-.388.116-.62.233-.233.077-.465.155-.698.271l-.698.349a7 7 0 0 0-.697.426zM49.623 60.999s.039-.388.155-.892c.078-.271.155-.581.272-.891.116-.31.27-.62.504-.93.193-.31.426-.543.658-.776.078-.039.117-.116.194-.155.078-.039.117-.116.155-.155l.35-.233c.232-.155.426-.232.542-.31l.232-.116v.271c0 .155 0 .388-.038.66-.039.27-.078.58-.194.89-.039.156-.116.311-.194.505-.077.155-.155.31-.271.465zM49.779 61.31l.348.115c.233.078.582.156.97.233.387.078.891.078 1.395.078.116 0 .272 0 .388-.04.116 0 .271-.038.426-.077.272-.077.543-.155.853-.232.155-.04.271-.117.426-.155.117-.078.272-.117.388-.194.233-.155.504-.31.698-.465.232-.155.426-.35.62-.504s.349-.35.504-.504c.31-.31.504-.62.659-.853l.233-.349s-.582-.077-1.396-.039c-.426 0-.892.04-1.395.155-.504.078-1.047.194-1.551.427zM42.84 64.217s.116-.388.387-.853c.272-.465.62-1.085 1.202-1.55.155-.117.271-.233.426-.31.156-.078.272-.195.427-.272s.271-.116.426-.194c.155-.039.272-.116.388-.155.465-.155.853-.233.853-.233s-.039.388-.233.892a5 5 0 0 1-.388.814c-.193.271-.426.581-.697.814zM42.917 64.527s.426.349 1.202.697c.077.04.194.078.31.117.116.038.194.077.31.116.233.078.465.116.736.194l.814.116c.272 0 .582 0 .892-.039.31-.038.582-.077.892-.155.271-.077.542-.194.814-.271q.407-.174.697-.349c.233-.116.427-.271.62-.388.35-.232.66-.465.854-.659l.31-.31s-.155-.038-.388-.116a9 9 0 0 0-.97-.233 13 13 0 0 0-1.395-.193c-.504-.04-1.046-.078-1.628 0zM42.53 6.69s-.078.04-.233.155c-.078.04-.155.078-.272.155-.116.04-.194.117-.349.194-.232.117-.542.233-.852.35-.155.038-.31.077-.504.115a2.3 2.3 0 0 1-.543.078c-.349.039-.698 0-1.008-.039a4.6 4.6 0 0 1-.853-.194 4.5 4.5 0 0 1-.581-.232l-.233-.117.194-.193c.116-.117.31-.272.504-.388.233-.155.504-.31.814-.426a2 2 0 0 1 .504-.155c.194-.04.349-.078.543-.078z"/><path fill="#51565E" d="M42.53 6.806s-.04-.155-.117-.349c-.077-.232-.233-.542-.426-.891-.194-.349-.504-.737-.853-1.124-.35-.388-.814-.737-1.318-1.047-.543-.271-1.086-.504-1.628-.62-.543-.116-1.047-.155-1.473-.194-.427 0-.814.039-1.086.039a3 3 0 0 1-.426.039s.31.504.891 1.085c.272.31.62.659 1.008.97.194.154.427.387.93.736zM49.585 10.218s-.078.039-.233.077c-.155.04-.388.117-.66.155-.27.04-.58.117-.89.117-.35.038-.66 0-1.047-.039a2.6 2.6 0 0 1-.97-.31c-.31-.116-.542-.271-.775-.388s-.387-.271-.504-.349a1.4 1.4 0 0 1-.194-.155l.233-.116c.155-.078.349-.155.62-.271.272-.078.543-.155.892-.194.155-.039.349-.039.543-.039.193 0 .349.039.542.039zM49.778 9.946s0-.155-.038-.388c-.04-.232-.078-.581-.194-.969-.117-.388-.272-.853-.543-1.318a5.4 5.4 0 0 0-1.008-1.357l-.155-.155c-.039-.038-.116-.077-.155-.155-.116-.077-.233-.194-.349-.271-.232-.155-.465-.31-.736-.465a6.4 6.4 0 0 0-1.396-.543c-.194-.077-.426-.116-.581-.155-.194-.039-.35-.078-.465-.078-.272-.038-.427-.038-.427-.038s.194.542.581 1.279c.04.077.117.194.156.271.038.117.116.194.155.31.116.194.271.427.387.62.155.194.31.427.465.62.155.195.35.427.543.621zM55.4 15.025s-.388.038-.93 0c-.117 0-.272-.04-.427-.04s-.31-.038-.465-.077c-.31-.077-.66-.155-1.008-.31-.66-.271-1.163-.736-1.512-1.085a3.5 3.5 0 0 1-.543-.698s.349-.116.892-.155q.406-.058.93 0c.349.039.698.155 1.047.271zM55.67 14.792s.117-.543.117-1.357c0-.427-.078-.892-.194-1.396a5.3 5.3 0 0 0-.66-1.55A4.7 4.7 0 0 0 53.81 9.17c-.117-.078-.194-.194-.31-.272-.117-.077-.194-.155-.31-.232a5 5 0 0 0-.582-.388c-.194-.116-.349-.232-.543-.31a4 4 0 0 0-.426-.194c-.233-.116-.388-.155-.388-.155s0 .155.039.388c.039.232.116.581.194 1.008.077.426.232.891.387 1.356.04.117.078.233.155.35.04.116.117.232.155.387.117.232.233.504.388.736zM59.857 21.11s-.388-.038-.892-.193a5 5 0 0 1-.853-.35c-.31-.154-.62-.31-.891-.542s-.543-.465-.737-.736a1.4 1.4 0 0 1-.27-.388l-.233-.349c-.272-.426-.388-.775-.388-.775s.387-.04.891.077a4.04 4.04 0 0 1 1.822.776zM60.167 20.956s.271-.504.426-1.318c.04-.194.078-.427.117-.66.038-.232.038-.464.038-.736s0-.542-.038-.814a7 7 0 0 0-.194-.852 5 5 0 0 0-.31-.815 4.6 4.6 0 0 0-.427-.736c-.155-.233-.31-.427-.465-.66a3 3 0 0 0-.504-.503 5.6 5.6 0 0 0-.814-.698c-.194-.155-.349-.232-.349-.232s-.038.155-.038.387c0 .117-.04.272-.04.427s-.038.349-.038.581c0 .427 0 .892.078 1.396.038.504.155 1.046.31 1.589zM62.648 28.127s-.349-.155-.814-.427c-.233-.155-.504-.31-.737-.542s-.504-.466-.736-.737c-.116-.155-.194-.31-.271-.426a4 4 0 0 0-.233-.427c-.116-.271-.233-.581-.271-.814-.078-.232-.117-.465-.155-.62-.04-.155-.04-.233-.04-.233s.388.078.854.272c.27.116.504.271.775.465s.542.426.775.736zM62.958 28.05l.078-.078a.6.6 0 0 0 .155-.233c.155-.193.31-.465.504-.852.194-.35.387-.814.504-1.318a5 5 0 0 0 .155-.814c0-.155.039-.272.039-.427v-.426c-.04-1.202-.504-2.326-.97-3.063a8 8 0 0 0-.62-.891c-.077-.117-.155-.194-.194-.233l-.077-.077s0 .038-.039.077c-.039.078-.077.155-.116.272-.078.232-.194.581-.31.969-.194.814-.427 1.86-.388 2.985zM63.579 35.609s-.31-.233-.698-.62a5.5 5.5 0 0 1-.582-.698c-.193-.272-.387-.582-.504-.892a4.9 4.9 0 0 1-.348-1.86c0-.272 0-.466.038-.62 0-.156.04-.233.04-.233s.348.155.774.503c.194.155.427.388.66.66.116.116.193.27.31.426.077.155.193.31.27.504zM63.927 35.608s.465-.31 1.008-.93c.272-.31.582-.698.814-1.163.117-.233.233-.465.35-.737.115-.271.193-.542.27-.852s.078-.582.117-.892c0-.271.038-.582 0-.853a7.7 7.7 0 0 0-.272-1.473c-.271-.853-.542-1.395-.542-1.395s-.388.465-.776 1.162c-.116.194-.194.388-.31.582a3.4 3.4 0 0 0-.31.659 4 4 0 0 0-.271.736c-.039.117-.078.272-.116.388-.04.116-.078.271-.117.427z"/><path fill="#51565E" d="M34.815 70.302c.117 0 .194-.039.272-.155 1.9-3.217 4.845-4.613 6.977-5.233 12.948-3.76 22.018-15.816 22.018-29.345a30.57 30.57 0 0 0-6.86-19.266c-4.342-5.35-10.428-9.11-17.135-10.544-.155-.038-.349.078-.349.233-.038.155.078.349.233.349 13.606 2.985 23.491 15.273 23.491 29.228 0 13.219-8.877 25.042-21.553 28.725-3.217.93-5.776 2.83-7.326 5.504-.078.155-.039.35.116.427 0 .077.078.077.116.077"/></svg>