<svg xmlns:xlink="http://www.w3.org/1999/xlink" xmlns="http://www.w3.org/2000/svg" xml:space="preserve" id="Layer_1" width="160" height="160" x="0" y="0" version="1.1"><style>.st2{fill:#646464}</style><linearGradient id="SVGID_1_" x1="-2596.383" x2="-2587.183" y1="408.787" y2="416.701" gradientTransform="matrix(2.9618 0 0 2.9907 7744.0132 -1206.9723)" gradientUnits="userSpaceOnUse"><stop offset="0" style="stop-color:#5a9fd4"/><stop offset="1" style="stop-color:#306998"/></linearGradient><path d="M79.6 14.1c-2 0-4 .3-5.8.5-5.1.8-5.9 2.8-5.9 6.2v4.6h11.8v1.5H63.5c-3.5 0-6.4 2-7.5 6-1.1 4.6-1.2 7.4 0 12.1.8 3.6 3 6 6.3 6h4.2v-5.4c0-3.9 3.5-7.5 7.5-7.5h11.8c3.4 0 5.9-2.7 5.9-6V20.8c0-3.2-2.7-5.6-5.9-6.2-2-.3-4-.5-6.2-.5m-6.4 3.7c1.2 0 2.3.9 2.3 2.3 0 1.3-.9 2.3-2.3 2.3-1.2 0-2.3-.9-2.3-2.3 0-1.2 1.1-2.3 2.3-2.3" style="fill:url(#SVGID_1_)"/><linearGradient id="SVGID_00000072964074895713165950000003422763552964380803_" x1="-2583.605" x2="-2586.89" y1="421.474" y2="416.826" gradientTransform="matrix(2.9618 0 0 2.9907 7744.0132 -1206.9723)" gradientUnits="userSpaceOnUse"><stop offset="0" style="stop-color:#ffd43b"/><stop offset="1" style="stop-color:#ffe873"/></linearGradient><path d="M93.3 26.8V32c0 4.2-3.5 7.5-7.5 7.5H74c-3.2.1-5.9 3-5.9 6.2V57c0 3.2 2.8 5.2 5.9 6 3.8 1.1 7.4 1.3 11.8 0 3.1-.8 5.9-2.5 5.9-6v-4.6H79.9V51h17.8c3.5 0 4.7-2.4 5.9-6 1.3-3.8 1.2-7.4 0-12.1-.8-3.5-2.5-6-5.9-6h-4.4zm-6.7 28.7c1.2 0 2.3.9 2.3 2.3s-.9 2.3-2.3 2.3c-1.2 0-2.3-.9-2.3-2.3 0-1.2 1.1-2.3 2.3-2.3" style="fill:url(#SVGID_00000072964074895713165950000003422763552964380803_)"/><path d="M26.2 99.6c0-6-1.7-9.1-5.1-9.2-1.4-.1-2.7.2-4 .7-1 .4-1.7.7-2.1 1.1v14.4c2.2 1.4 4.1 2 5.9 1.9 3.4-.4 5.3-3.3 5.3-8.9m4.3.1c0 3-.7 5.6-2.2 7.6-1.6 2.4-3.9 3.4-6.7 3.5-2.1.1-4.4-.6-6.6-2v13.1l-3.7-1.2v-29c.6-.7 1.4-1.4 2.4-1.9 2.2-1.2 4.9-1.9 8-2h.1c2.9 0 5.1 1.1 6.6 3.5 1.3 2.1 2.1 5 2.1 8.4m22.6 8.6c0 4.1-.4 7-1.2 8.5-.7 1.6-2.4 2.9-4.7 3.9-1.9.7-3.9 1.1-6.1 1.2l-.6-2.4c2.2-.2 3.9-.6 4.7-.9 1.7-.6 3-1.5 3.7-2.9.5-1 .7-2.9.7-5.9v-.9c-2.5 1.1-5.1 1.7-8 1.7-1.7 0-3.4-.6-4.9-1.7-1.5-1.2-2.4-2.9-2.4-4.7V89l3.7-1.2v15.5c0 1.6.5 2.9 1.6 3.9 1.1.9 2.4 1.2 4.1 1.2s3.5-.7 5.4-2V88.2h3.7zm14.4 2.4c-.4 0-.7.1-1.2.1-2.1 0-3.7-.5-4.9-1.5s-1.7-2.4-1.7-4.1V90.7h-2.5v-2.4h2.5v-6.2l3.6-1.2v7.5h4.1v2.4h-4.1v14.4c0 1.4.4 2.4 1.1 2.9.6.5 1.6.7 3 .7v2h.1zm22.3-.4h-3.7V96.2c0-1.4-.2-2.7-1-3.7-.7-1.2-1.7-1.7-3.2-1.7-1.7 0-3.9.9-6.4 2.7v17.1h-3.7V76.3l3.7-1.2v15.5c2.4-1.7 4.9-2.6 7.7-2.6 1.9 0 3.5.7 4.7 2s1.7 2.9 1.7 4.9v15.5h.2zm19.5-11.4c0-2.4-.4-4.2-1.2-5.7-1-1.7-2.6-2.9-4.9-2.9-4 .2-6 3.1-6 8.6 0 2.5.4 4.6 1.2 6.4 1.1 2.2 2.7 3.2 4.9 3.2 4-.1 6-3.2 6-9.6m4 0c0 3.4-.7 6-2.5 8.2-1.7 2.4-4.4 3.7-7.6 3.7s-5.7-1.2-7.5-3.7c-1.6-2.2-2.5-4.9-2.5-8.2 0-3.1.9-5.7 2.7-7.9 1.9-2.2 4.4-3.4 7.5-3.4 3 0 5.5 1.1 7.5 3.4 1.6 2.3 2.4 4.9 2.4 7.9m21.3 11.4h-3.7v-15q0-2.4-1.5-3.9c-1-.9-2.4-1.4-3.9-1.2-1.7 0-3.4.6-5 1.7v18.4h-3.7V91.4c2.1-1.5 4.1-2.5 5.9-3 1.7-.4 3.1-.7 4.4-.7.9 0 1.7.1 2.5.2 1.4.2 2.6 1 3.5 1.9q1.5 1.5 1.5 3.6zM141.8 85.1h.6v-4h1.5v-.5h-3.7v.5h1.5zm2.8 0h.5v-3.7l1.2 3.7h.6l1.2-3.7v3.7h.6v-4.5h-.9l-1.4 3.9-1.2-3.9h-.9z" class="st2"/></svg>