<svg xmlns:xlink="http://www.w3.org/1999/xlink" xmlns="http://www.w3.org/2000/svg" width="35" height="35"><g fill="none" fill-rule="nonzero"><g fill="#9FA6B3"><path d="M3.181 20.89s.117-.155.253-.389c.059-.117.137-.253.195-.409.059-.156.117-.33.137-.506.019-.098.019-.175.019-.253v-.254c-.02-.155-.039-.311-.078-.428s-.058-.234-.078-.312-.039-.116-.039-.116-.156.116-.311.33c-.02.02-.04.06-.059.079-.02.039-.039.058-.058.097a2 2 0 0 0-.117.214 1.5 1.5 0 0 0-.156.526zM3.025 20.93s-.253-.098-.603-.331c-.078-.059-.176-.117-.273-.195a3 3 0 0 1-.273-.253 2 2 0 0 1-.253-.312l-.117-.175a1 1 0 0 1-.097-.195c-.273-.545-.331-1.13-.312-1.578.02-.447.098-.74.098-.74s.233.176.526.468c.155.156.292.33.467.526.078.097.156.214.234.33.078.118.136.234.194.37zM4.564 24.416s.02-.04.039-.117c.039-.078.078-.195.097-.312.04-.136.078-.292.078-.448 0-.039 0-.078.02-.117v-.40800000000000003a2.2 2.2 0 0 0-.292-.896.15.15 0 0 1-.04-.078c-.019-.02-.019-.059-.038-.078-.02-.04-.059-.078-.078-.117-.04-.058-.078-.097-.078-.097s-.117.155-.214.409a2 2 0 0 0-.137.448c-.02.077-.02.175-.039.253v.272zM4.428 24.494h-.059c-.039 0-.078-.02-.136-.02a2.4 2.4 0 0 1-.487-.136 3.2 3.2 0 0 1-1.285-.857 2.5 2.5 0 0 1-.254-.37c-.038-.059-.077-.117-.116-.195-.04-.058-.059-.136-.098-.195-.058-.116-.097-.253-.136-.37s-.078-.233-.097-.35c-.04-.214-.078-.41-.078-.526 0-.058 0-.117-.02-.156v-.058s.02 0 .04.02c.038.019.077.038.135.058.117.058.273.136.448.253q.263.175.585.409c.097.078.194.175.292.253.039.039.097.097.136.156s.097.097.136.156zM6.804 27.473s0-.039.02-.136c0-.078.019-.195.019-.331s0-.292-.02-.467c-.02-.078-.02-.176-.039-.254-.02-.078-.039-.175-.078-.253-.058-.175-.156-.311-.233-.448a1.7 1.7 0 0 0-.273-.35 2 2 0 0 0-.234-.215.4.4 0 0 0-.097-.077s-.02.039-.04.116c-.019.078-.058.195-.077.332-.02.136-.02.292-.02.467 0 .078.02.175.04.273.019.097.038.175.077.272zM6.687 27.59s-.078.02-.195.02h-.214c-.078 0-.175 0-.273-.02a3.7 3.7 0 0 1-.7-.136 3.4 3.4 0 0 1-.76-.37c-.254-.175-.448-.39-.643-.604a3.5 3.5 0 0 1-.41-.643c-.097-.194-.155-.37-.213-.506-.04-.117-.059-.195-.059-.195s.292.04.682.156c.097.04.195.059.311.117.117.039.234.078.351.136l.35.176c.117.058.234.136.351.214zM9.725 29.888s-.02-.194-.078-.448c-.039-.136-.078-.292-.136-.448a1.8 1.8 0 0 0-.253-.467 2.2 2.2 0 0 0-.332-.39c-.038-.019-.058-.058-.097-.077-.039-.02-.058-.059-.078-.078q-.088-.06-.175-.117c-.117-.078-.214-.117-.273-.156l-.117-.058v.136c0 .078 0 .195.02.331s.039.292.097.448c.02.078.059.156.098.253.039.078.078.156.136.234zM9.647 30.044l-.175.059a5 5 0 0 1-.487.116c-.195.04-.448.04-.701.04-.059 0-.137 0-.195-.02-.058 0-.136-.02-.214-.04a13 13 0 0 0-.429-.116c-.078-.02-.136-.058-.214-.078-.058-.039-.136-.058-.195-.097-.116-.078-.253-.156-.35-.234-.117-.078-.214-.175-.312-.253-.097-.078-.175-.175-.253-.253-.156-.156-.253-.312-.331-.429l-.117-.175s.292-.039.701-.02c.214 0 .448.02.701.078.253.04.526.098.78.215zM13.133 31.505s-.058-.195-.195-.429c-.136-.233-.311-.545-.603-.779-.078-.058-.137-.117-.215-.156s-.136-.097-.214-.136-.136-.058-.214-.097c-.078-.02-.136-.059-.195-.078a4 4 0 0 0-.428-.117s.02.195.117.448c.039.117.116.273.194.409.098.136.215.292.35.409zM13.094 31.66s-.214.176-.604.351c-.038.02-.097.04-.155.059-.059.019-.098.039-.156.058-.117.039-.234.058-.37.097l-.41.059c-.135 0-.291 0-.447-.02a4 4 0 0 1-.448-.078c-.136-.039-.273-.097-.409-.136a3 3 0 0 1-.35-.175c-.117-.059-.215-.137-.312-.195a3 3 0 0 1-.429-.331l-.155-.156s.077-.02.194-.058c.117-.04.292-.078.487-.117a7 7 0 0 1 .701-.097c.253-.02.526-.04.818 0zM13.289 2.603s.039.02.117.078c.039.02.078.04.136.078.059.02.098.059.175.098.117.058.273.116.429.175.078.02.156.039.253.058.078.02.175.04.273.04.175.019.35 0 .506-.02a2.3 2.3 0 0 0 .72-.215l.118-.058-.098-.097a1.4 1.4 0 0 0-.253-.195 2 2 0 0 0-.409-.214 1 1 0 0 0-.253-.078c-.098-.02-.175-.04-.273-.04z"/><path d="M13.289 2.662s.02-.078.058-.176c.04-.116.117-.272.215-.447.097-.176.253-.37.428-.565a3 3 0 0 1 .662-.526 3.5 3.5 0 0 1 .818-.312c.273-.058.526-.078.74-.097.214 0 .41.02.546.02.136.019.214.019.214.019s-.156.253-.448.545a4 4 0 0 1-.506.487c-.098.078-.215.195-.468.37zM9.744 4.376s.04.02.117.039.195.058.331.077c.137.02.292.059.448.059.176.02.331 0 .526-.02.175-.02.35-.078.487-.155.156-.059.273-.137.39-.195.116-.059.194-.136.253-.175.058-.04.097-.078.097-.078l-.117-.059c-.078-.039-.175-.078-.311-.136a2.6 2.6 0 0 0-.448-.097c-.078-.02-.176-.02-.273-.02s-.175.02-.273.02zM9.647 4.24s0-.079.02-.195c.019-.117.038-.293.097-.487.058-.195.136-.429.273-.663a2.7 2.7 0 0 1 .506-.681l.078-.078c.02-.02.058-.039.078-.078.058-.039.117-.097.175-.136.117-.078.234-.156.37-.234.253-.136.487-.214.701-.273.098-.039.214-.058.292-.078.098-.019.176-.039.234-.039.136-.019.214-.019.214-.019s-.097.273-.292.643c-.02.039-.058.097-.078.136-.02.058-.058.097-.078.156-.058.097-.136.214-.194.311-.078.098-.156.215-.234.312a4 4 0 0 1-.273.312zM6.823 6.79s.195.02.468 0c.058 0 .136-.019.214-.019s.156-.02.233-.039c.156-.039.332-.078.507-.156.33-.136.584-.37.76-.545.175-.175.272-.35.272-.35s-.175-.059-.448-.078a2 2 0 0 0-.467 0c-.176.019-.35.077-.526.136zM6.687 6.674s-.059-.273-.059-.682c0-.214.04-.448.098-.701s.175-.526.33-.78c.157-.272.351-.486.566-.661.058-.04.097-.098.155-.137.059-.039.098-.077.156-.116.098-.078.195-.137.292-.195.098-.059.176-.117.273-.156.078-.039.156-.078.214-.097.117-.059.195-.078.195-.078s0 .078-.02.195c-.019.116-.058.292-.097.506s-.117.448-.195.681c-.02.059-.039.117-.078.176-.019.058-.058.117-.077.195-.059.116-.117.253-.195.37zM4.583 9.848s.195-.02.448-.097a2.5 2.5 0 0 0 .429-.175 2.216 2.216 0 0 0 .818-.643.7.7 0 0 0 .136-.195q.06-.088.117-.175c.136-.214.195-.39.195-.39s-.195-.02-.448.04a2 2 0 0 0-.916.389zM4.428 9.77s-.137-.253-.215-.662c-.019-.097-.039-.214-.058-.331s-.02-.234-.02-.37 0-.273.02-.409.058-.292.097-.428c.04-.137.098-.293.156-.41.059-.136.137-.253.214-.37.078-.116.156-.214.234-.33.078-.098.156-.176.253-.254q.233-.233.41-.35c.097-.078.175-.117.175-.117s.019.078.019.195c0 .058.02.136.02.214s.019.175.019.292c0 .214 0 .448-.039.701-.02.253-.078.526-.156.799zM3.181 13.373s.176-.078.41-.214c.116-.078.252-.156.37-.273.116-.117.252-.233.37-.37.058-.078.097-.156.136-.214.039-.078.078-.156.116-.214.059-.136.117-.292.137-.41.039-.116.058-.233.078-.31.02-.079.02-.118.02-.118s-.196.04-.43.137A2 2 0 0 0 4 11.62a1.7 1.7 0 0 0-.39.37zM3.025 13.334l-.039-.039a.3.3 0 0 1-.077-.117 2.5 2.5 0 0 1-.254-.428 2.6 2.6 0 0 1-.253-.662 2.5 2.5 0 0 1-.078-.41c0-.077-.02-.135-.02-.213v-.215c.02-.603.254-1.168.488-1.538.117-.195.233-.35.311-.448a.7.7 0 0 1 .098-.117l.039-.039s0 .02.02.04c.019.038.038.077.058.135.039.117.097.293.155.487.098.41.215.935.195 1.5zM2.714 17.132s.156-.117.35-.312q.146-.146.293-.35c.097-.137.194-.292.253-.448a2.5 2.5 0 0 0 .175-.935c0-.136 0-.234-.02-.312a.3.3 0 0 0-.019-.116s-.175.077-.39.253a2.6 2.6 0 0 0-.33.33c-.059.06-.098.137-.156.215-.04.078-.098.156-.137.253zM2.539 17.132s-.234-.156-.507-.467a2.8 2.8 0 0 1-.409-.585c-.058-.117-.117-.233-.175-.37a3 3 0 0 1-.136-.428c-.04-.156-.04-.292-.059-.448 0-.136-.02-.292 0-.429a4 4 0 0 1 .137-.74c.136-.428.272-.7.272-.7s.195.233.39.583c.058.098.097.195.155.293.059.097.117.214.156.33.059.118.098.234.137.37.02.06.039.137.058.195.02.059.039.137.058.215z"/><path d="M17.165 34.562c-.059 0-.098-.02-.137-.078-.954-1.616-2.434-2.317-3.505-2.629C7.018 29.966 2.46 23.91 2.46 17.112c0-3.525 1.227-6.952 3.447-9.679a15.25 15.25 0 0 1 8.608-5.297c.078-.02.175.039.175.117.02.078-.039.175-.117.175-6.836 1.5-11.802 7.673-11.802 14.684 0 6.642 4.46 12.582 10.829 14.432 1.616.467 2.901 1.421 3.68 2.765.04.078.02.175-.058.214 0 .04-.039.04-.058.04"/></g><path fill="#D0D2D3" d="M6.843 17.774h21.442v1H6.843z"/><g fill="#212120"><path d="M8.83 16.937V15.36l-.683 1.032h-.019l-.682-1.032v1.577h-.525v-2.434h.584l.642 1.032.643-1.032h.584v2.434zM12.471 16.937l-.214-.545h-1.032l-.215.545h-.545l1.032-2.454h.487l1.032 2.454zm-.74-1.811-.331.779h.643zM15.022 16.976c-.37 0-.74-.136-1.032-.39l.312-.37c.214.176.448.293.72.293.214 0 .35-.078.35-.234 0-.136-.077-.214-.486-.312-.487-.116-.799-.253-.799-.74 0-.448.351-.74.857-.74.35 0 .663.117.896.312l-.272.409c-.215-.156-.429-.234-.624-.234-.194 0-.311.098-.311.214 0 .156.097.215.526.312.486.136.779.312.779.72-.02.487-.39.76-.916.76M18.216 14.99v1.947h-.526V14.99h-.74v-.487h2.006v.487zM20.066 16.937v-2.434h1.831v.467h-1.305v.487h1.15v.467h-1.15v.507h1.325v.467h-1.85zM24.663 16.937l-.526-.779h-.429v.78h-.526v-2.435h1.11c.565 0 .916.311.916.798 0 .39-.214.643-.526.76l.584.876zm0-1.597c0-.233-.156-.35-.429-.35h-.526v.7h.546c.272 0 .409-.136.409-.35M27.292 16.976c-.37 0-.74-.136-1.032-.39l.311-.37c.214.176.448.293.72.293.215 0 .351-.078.351-.234 0-.136-.078-.214-.487-.312-.486-.116-.798-.253-.798-.74 0-.448.35-.74.857-.74.35 0 .662.117.896.312l-.273.409c-.214-.156-.428-.234-.623-.234-.214 0-.312.098-.312.214 0 .156.098.215.526.312.487.136.78.312.78.72-.02.487-.39.76-.916.76"/></g><g fill="#212120"><path d="M7.855 20.443h-.409v.72h-.525V18.73h.993c.584 0 .935.35.935.837 0 .585-.448.877-.994.877m.448-.857c0-.234-.175-.37-.428-.37h-.41v.74h.43c.252 0 .408-.156.408-.37M11.225 21.163l-.526-.779h-.429v.78h-.526v-2.435h1.11c.565 0 .916.312.916.798 0 .39-.214.643-.526.76l.584.876zm0-1.597c0-.233-.156-.35-.429-.35h-.526v.7h.546c.253 0 .409-.135.409-.35M13.912 21.202c-.76 0-1.285-.564-1.285-1.246s.545-1.266 1.305-1.266 1.285.565 1.285 1.246a1.285 1.285 0 0 1-1.305 1.266m.74-1.246a.744.744 0 0 0-.74-.76c-.428 0-.72.331-.72.76 0 .409.311.76.74.76.409 0 .72-.332.72-.76M17.34 21.202c-.76 0-1.286-.526-1.286-1.246 0-.682.546-1.266 1.266-1.266.429 0 .701.117.955.331l-.331.409c-.195-.156-.351-.253-.643-.253-.39 0-.701.35-.701.76 0 .447.311.778.74.778.195 0 .37-.058.506-.136v-.35h-.545v-.468h1.052v1.052c-.215.234-.565.39-1.013.39M20.904 21.163l-.526-.779h-.428v.78h-.526v-2.435h1.11c.565 0 .915.312.915.798 0 .39-.214.643-.526.76l.585.876zm.02-1.597c0-.233-.157-.35-.43-.35h-.525v.7h.545c.253 0 .41-.135.41-.35M24.312 21.163l-.214-.545h-1.032l-.215.545h-.545l1.052-2.454h.487l1.032 2.454zm-.74-1.791-.331.779h.643zM27.642 21.163v-1.577l-.681 1.032h-.02l-.681-1.032v1.577h-.526V18.73h.584l.643 1.032.642-1.032h.585v2.434z"/></g><g fill="#FFC013"><path d="m11.205 23.091.273.838h.896l-.721.545.273.877-.72-.526-.722.526.273-.877-.72-.545h.895zM14.38 23.091l.272.838h.896l-.72.545.272.877-.72-.526-.74.526.292-.877-.74-.545h.895zM17.535 23.091l.292.838h.896l-.721.545.273.877-.74-.526-.721.526.273-.877-.72-.545h.895zM20.71 23.091l.272.838h.915l-.74.545.273.877-.72-.526-.722.526.273-.877-.72-.545h.895zM23.884 23.091l.272.838h.896l-.72.545.272.877-.72-.526-.721.526.273-.877-.74-.545h.915z"/></g><g fill="#FFC013"><path d="M17.457 11.192c1.48 0 2.726.078 3.135.175l.78-3.973s-1.773 1.558-2.26 1.558c-.506 0-1.655-1.09-1.655-1.09s-1.11 1.09-1.578 1.09c-.487 0-2.317-1.558-2.317-1.558l.779 3.973c.39-.097 1.636-.175 3.116-.175M17.457 11.679c-1.812 0-3.292.117-3.292.234h6.564c0-.137-1.461-.234-3.272-.234"/></g><g fill="#9FA6B3"><path d="M31.846 20.89s-.117-.155-.253-.389c-.059-.117-.137-.253-.195-.409a2.2 2.2 0 0 1-.136-.506c-.02-.098-.02-.175-.02-.253v-.254c.02-.155.039-.311.078-.428s.058-.234.078-.312a.6.6 0 0 1 .039-.116s.156.116.311.33c.02.02.04.06.059.079.02.039.039.058.058.097.04.058.078.136.117.214.078.156.136.331.156.526zM32.002 20.93s.253-.098.603-.331c.078-.059.176-.117.273-.195s.175-.156.273-.253c.097-.098.175-.195.253-.312l.117-.175a1 1 0 0 0 .097-.195c.273-.545.331-1.13.312-1.578-.02-.447-.098-.74-.098-.74s-.233.176-.526.468c-.155.156-.292.33-.467.526a5 5 0 0 0-.234.33 2.2 2.2 0 0 0-.194.37zM30.463 24.416s-.02-.04-.039-.117a1.2 1.2 0 0 1-.097-.312 1.7 1.7 0 0 1-.078-.448c0-.039 0-.078-.02-.117v-.40800000000000003c.04-.351.156-.682.292-.896a.15.15 0 0 0 .04-.078c.019-.02.019-.059.038-.078.02-.04.059-.078.078-.117.04-.058.078-.097.078-.097s.117.155.214.409c.059.116.098.272.137.448.02.077.02.175.039.253v.272zM30.6 24.494h.058c.039 0 .078-.02.136-.02a2.4 2.4 0 0 0 .487-.136c.39-.136.876-.41 1.285-.857a2.5 2.5 0 0 0 .254-.37c.039-.059.077-.117.116-.195.04-.058.059-.136.098-.195.058-.116.097-.253.136-.37s.078-.233.097-.35c.04-.214.078-.41.078-.526 0-.058 0-.117.02-.156v-.058s-.02 0-.04.02c-.038.019-.077.038-.135.058a4 4 0 0 0-.448.253q-.263.175-.585.409c-.097.078-.194.175-.292.253a1 1 0 0 0-.136.156c-.039.058-.097.097-.136.156zM28.223 27.473s0-.039-.02-.136c0-.078-.019-.195-.019-.331s0-.292.02-.467c.02-.078.02-.176.039-.254.02-.078.039-.175.078-.253.058-.175.156-.311.233-.448a1.7 1.7 0 0 1 .273-.35c.097-.098.175-.176.234-.215.058-.058.097-.077.097-.077s.02.039.04.116c.019.078.058.195.077.332.02.136.02.292.02.467 0 .078-.02.175-.04.273-.019.097-.038.175-.077.272zM28.34 27.59s.078.02.195.02h.214c.078 0 .175 0 .273-.02a3.7 3.7 0 0 0 .701-.136c.253-.078.506-.214.76-.37.253-.175.447-.39.642-.604.175-.214.312-.448.41-.643.097-.194.155-.37.213-.506.04-.117.059-.195.059-.195s-.292.04-.682.156c-.097.04-.195.059-.311.117a3 3 0 0 0-.351.136l-.35.176a3 3 0 0 0-.351.214zM25.302 29.888s.02-.194.078-.448c.039-.136.078-.292.136-.448a1.8 1.8 0 0 1 .253-.467 2.2 2.2 0 0 1 .332-.39c.039-.019.058-.058.097-.077.039-.02.058-.059.078-.078q.087-.06.175-.117c.117-.078.214-.117.273-.156l.117-.058v.136c0 .078 0 .195-.02.331s-.039.292-.097.448c-.02.078-.059.156-.098.253-.039.078-.078.156-.136.234zM25.38 30.044l.175.059c.117.038.292.077.487.116s.448.04.701.04c.059 0 .137 0 .195-.02.058 0 .136-.02.214-.04.137-.038.273-.077.429-.116.078-.02.136-.058.214-.078.058-.039.136-.058.195-.097.117-.078.253-.156.35-.234.117-.078.214-.175.312-.253.097-.078.175-.175.253-.253.156-.156.253-.312.331-.429l.117-.175s-.292-.039-.701-.02c-.214 0-.448.02-.701.078a3 3 0 0 0-.78.215zM21.894 31.505s.058-.195.195-.429c.136-.233.311-.545.603-.779.078-.058.137-.117.215-.156s.136-.097.214-.136.136-.058.214-.097c.078-.02.136-.059.195-.078.234-.078.428-.117.428-.117s-.02.195-.117.448a2.6 2.6 0 0 1-.194.409 2.3 2.3 0 0 1-.35.409zM21.933 31.66s.214.176.604.351c.039.02.097.04.155.059.059.019.098.039.156.058.117.039.234.058.37.097l.41.059c.136 0 .291 0 .447-.02s.292-.039.448-.078c.136-.039.273-.097.409-.136a3 3 0 0 0 .35-.175c.117-.059.215-.137.312-.195.175-.117.331-.234.429-.331l.155-.156s-.077-.02-.194-.058a5 5 0 0 0-.487-.117 7 7 0 0 0-.701-.097 4 4 0 0 0-.818 0zM21.738 2.603s-.039.02-.117.078c-.039.02-.078.04-.136.078-.059.02-.097.059-.175.098a5 5 0 0 1-.429.175c-.078.02-.156.039-.253.058a1.2 1.2 0 0 1-.273.04c-.175.019-.35 0-.506-.02a2.3 2.3 0 0 1-.72-.215q-.118-.058-.117-.058l.097-.097c.058-.059.156-.137.253-.195.117-.078.253-.156.41-.214a1 1 0 0 1 .252-.078c.098-.02.176-.04.273-.04z"/><path d="M21.738 2.662s-.02-.078-.058-.176a3 3 0 0 0-.215-.447 3.3 3.3 0 0 0-.428-.565 3 3 0 0 0-.662-.526 3.5 3.5 0 0 0-.818-.312c-.273-.058-.526-.078-.74-.097-.214 0-.41.02-.546.02-.136.019-.214.019-.214.019s.156.253.448.545c.136.156.312.331.507.487.097.078.214.195.467.37zM25.283 4.376s-.04.02-.117.039-.195.058-.331.077c-.137.02-.292.059-.448.059-.176.02-.331 0-.526-.02a1.3 1.3 0 0 1-.487-.155c-.156-.059-.273-.137-.39-.195-.116-.059-.194-.136-.253-.175-.058-.04-.097-.078-.097-.078l.117-.059c.078-.039.175-.078.311-.136.137-.039.273-.078.448-.097.078-.02.176-.02.273-.02s.175.02.273.02zM25.38 4.24s0-.079-.02-.195c-.019-.117-.038-.293-.097-.487a3 3 0 0 0-.273-.663 2.7 2.7 0 0 0-.506-.681l-.078-.078c-.02-.02-.058-.039-.078-.078-.058-.039-.117-.097-.175-.136a6 6 0 0 0-.37-.234 3.2 3.2 0 0 0-.701-.273c-.097-.039-.214-.058-.292-.078-.098-.019-.176-.039-.234-.039-.136-.019-.214-.019-.214-.019s.097.273.292.643c.02.039.058.097.078.136.02.058.058.097.078.156.058.097.136.214.195.311.077.098.155.215.233.312a4 4 0 0 0 .273.312zM28.204 6.79s-.195.02-.468 0c-.058 0-.136-.019-.214-.019a1 1 0 0 1-.233-.039c-.156-.039-.332-.078-.507-.156-.33-.136-.584-.37-.76-.545-.175-.175-.272-.35-.272-.35s.175-.059.448-.078q.204-.03.467 0c.176.019.35.077.526.136zM28.34 6.674s.059-.273.059-.682c0-.214-.04-.448-.098-.701a2.7 2.7 0 0 0-.33-.78 2.4 2.4 0 0 0-.566-.661c-.058-.04-.097-.098-.155-.137-.059-.039-.098-.077-.156-.116a3 3 0 0 0-.292-.195c-.098-.059-.176-.117-.273-.156a2 2 0 0 0-.214-.097c-.117-.059-.195-.078-.195-.078s0 .078.02.195c.019.116.058.292.097.506s.117.448.195.681c.02.059.039.117.078.176.019.058.058.117.077.195.059.116.117.253.195.37zM30.444 9.848s-.195-.02-.448-.097a2.5 2.5 0 0 1-.429-.175 2.216 2.216 0 0 1-.818-.643.7.7 0 0 1-.136-.195q-.06-.088-.117-.175c-.136-.214-.195-.39-.195-.39s.195-.02.448.04c.273.038.604.155.916.389zM30.6 9.77s.136-.253.214-.662c.02-.097.039-.214.058-.331s.02-.234.02-.37 0-.273-.02-.409a3 3 0 0 0-.097-.428 2.5 2.5 0 0 0-.156-.41c-.059-.136-.136-.253-.214-.37s-.156-.214-.234-.33a1.6 1.6 0 0 0-.253-.254 3 3 0 0 0-.41-.35 1 1 0 0 0-.175-.117s-.019.078-.019.195c0 .058-.02.136-.02.214s-.019.175-.019.292c0 .214 0 .448.039.701.02.253.078.526.156.799zM31.846 13.373s-.175-.078-.41-.214c-.116-.078-.252-.156-.37-.273-.116-.117-.252-.233-.37-.37-.058-.078-.097-.156-.136-.214a2 2 0 0 0-.116-.214 2 2 0 0 1-.137-.41c-.039-.116-.058-.233-.078-.31-.02-.079-.02-.118-.02-.118s.196.04.43.137c.136.058.252.136.389.233.136.098.272.215.39.37zM32.002 13.334l.039-.039a.3.3 0 0 0 .077-.117c.078-.097.156-.233.254-.428.097-.175.194-.409.253-.662a2.5 2.5 0 0 0 .078-.41c0-.077.02-.135.02-.213v-.215a3.2 3.2 0 0 0-.488-1.538 4 4 0 0 0-.311-.448.7.7 0 0 0-.098-.117l-.039-.039s0 .02-.02.04c-.019.038-.038.077-.058.135-.038.117-.097.293-.155.487-.098.41-.215.935-.195 1.5zM32.313 17.132s-.156-.117-.35-.312a3 3 0 0 1-.292-.35 2 2 0 0 1-.254-.448 2.5 2.5 0 0 1-.175-.935c0-.136 0-.234.02-.312 0-.077.019-.116.019-.116s.175.077.39.253c.097.078.214.195.33.33.059.06.098.137.156.215.04.078.098.156.137.253zM32.488 17.132s.234-.156.507-.467a2.8 2.8 0 0 0 .409-.585c.058-.117.117-.233.175-.37.059-.136.097-.272.136-.428s.04-.292.059-.448c0-.136.02-.292 0-.429a4 4 0 0 0-.136-.74c-.137-.428-.273-.7-.273-.7s-.195.233-.39.583c-.058.098-.097.195-.155.293a1.7 1.7 0 0 0-.156.33 2 2 0 0 0-.137.37c-.019.06-.039.137-.058.195-.02.059-.039.137-.058.215z"/><path d="M17.862 34.562c.059 0 .098-.02.137-.078.954-1.616 2.434-2.317 3.505-2.629 6.505-1.889 11.062-7.946 11.062-14.743 0-3.525-1.227-6.952-3.447-9.679a15.25 15.25 0 0 0-8.608-5.297c-.078-.02-.175.039-.175.117-.02.078.039.175.117.175 6.836 1.5 11.802 7.673 11.802 14.684 0 6.642-4.46 12.582-10.829 14.432-1.616.467-2.901 1.421-3.68 2.765-.04.078-.02.175.058.214 0 .04.039.04.058.04"/></g></g></svg>