<svg xmlns:xlink="http://www.w3.org/1999/xlink" xmlns="http://www.w3.org/2000/svg" xml:space="preserve" id="Layer_1" width="160" height="160" x="0" y="0" version="1.1"><style>.st0{fill:#939393}</style><path d="m64 86.8-2.5 7.4h5.3zm1.9-3.2 6.6 17.5h-3.4l-1.5-4.4h-6.9l-1.5 4.4h-3.4l6.6-17.5zM74 88.5h10v1.3l-6.5 8.9h6.6v2.4H73.5v-1.4l6.5-8.8h-6zM97.1 88.5V101h-3v-1.6c-.4.6-.9 1-1.5 1.3s-1.4.5-2.2.5c-1.4 0-2.5-.4-3.4-1.2-.8-.8-1.1-2.1-1.1-3.9v-7.6h3v7.3q0 1.5.6 2.4c.4.6 1 .8 1.9.8.8 0 1.5-.3 2-.9s.7-1.3.7-2.3v-7.3zM105.5 88.3h.6c.2 0 .3.1.5.1v3c-.2-.1-.4-.2-.7-.3s-.6-.2-1.1-.2q-1.05 0-1.8.9c-.5.6-.7 1.5-.7 2.8v6.3h-3V88.5h3v1.9c.3-.7.7-1.2 1.2-1.6.6-.3 1.3-.5 2-.5M115.5 93.5c0-1-.2-1.7-.7-2.2-.4-.5-1.1-.8-1.9-.8-.7 0-1.3.3-1.9.8s-.9 1.2-1.1 2.2zm1.9 4.4v2.4c-.5.3-1.1.5-1.9.7s-1.6.3-2.5.3c-1.9 0-3.4-.6-4.5-1.7-1-1.1-1.6-2.7-1.6-4.7 0-1.9.6-3.6 1.7-4.8s2.5-1.9 4.3-1.9c1.7 0 3.1.5 4.1 1.6 1 1 1.4 2.5 1.4 4.4v1.4h-8.7c.1 1.2.5 2.1 1.2 2.6s1.5.7 2.6.7c.7 0 1.4-.1 2-.3.8 0 1.3-.3 1.9-.7M150.8 67.3h-4.4v10.2h-3V67.3h-2.1v-2.4h2.1v-1.7c0-1.3.4-2.4 1.3-3.3q1.2-1.2 3.3-1.2c.3 0 .7 0 .9.1.3 0 .5.1.7.2v2.5c-.1-.1-.3-.1-.5-.2s-.5-.1-.8-.1c-.6 0-1.1.2-1.4.6s-.5.9-.5 1.7V65h4.4v-2.8l3-.9V65h3v2.4h-3v5.9c0 .8.1 1.3.4 1.6s.7.5 1.3.5c.2 0 .4 0 .6-.1l.6-.3v2.4q-.3.15-.9.3c-.4.1-.8.1-1.3.1-1.2 0-2.1-.3-2.8-1q-.9-.9-.9-3zm-19.7 3.9c0 1.3.3 2.3.9 3.1.6.7 1.4 1 2.5 1s1.9-.3 2.4-1c.6-.7.8-1.7.8-3.1s-.3-2.3-.9-3.1c-.6-.7-1.4-1-2.4-1-1.1 0-1.9.4-2.5 1.1-.5.7-.8 1.7-.8 3m-3.1.1c0-2 .6-3.8 1.7-5 1.2-1.2 2.8-1.8 4.9-1.8 1.9 0 3.5.6 4.6 1.7s1.6 2.7 1.6 4.8c0 2-.6 3.7-1.7 4.9q-1.65 1.8-4.8 1.8c-1.9 0-3.5-.6-4.7-1.7-1-1.1-1.6-2.7-1.6-4.7m-6.6-3.1c0 .4.1.7.4 1 .3.2.8.5 1.8.9 1.2.5 2 1 2.4 1.6s.7 1.3.7 2.1c0 1.2-.4 2.1-1.3 2.8s-2.1 1.1-3.7 1.1c-.5 0-1.1-.1-1.7-.2s-1.1-.3-1.6-.5v-3c.5.4 1.1.7 1.7.9s1.2.3 1.7.3c.7 0 1.1-.1 1.4-.3s.5-.5.5-.9-.2-.7-.5-1-.9-.6-1.8-1c-1.1-.5-1.8-1-2.3-1.5-.5-.6-.7-1.3-.7-2.1 0-1.1.4-2 1.3-2.7s2-1.1 3.5-1.1c.4 0 .9 0 1.5.1.5.1 1 .2 1.3.4V68c-.4-.3-.8-.5-1.3-.7q-.75-.3-1.5-.3c-.6 0-1 .1-1.3.3-.4.2-.5.5-.5.9m-14.2 3c0 1.3.3 2.3.9 3.1.6.7 1.4 1 2.5 1s1.9-.3 2.4-1 .8-1.7.8-3.1-.3-2.3-.9-3.1c-.6-.7-1.4-1-2.4-1-1.1 0-1.9.4-2.5 1.1-.5.7-.8 1.7-.8 3m-3.1.1c0-2 .6-3.8 1.7-5 1.2-1.2 2.8-1.8 4.9-1.8 1.9 0 3.5.6 4.6 1.7s1.6 2.7 1.6 4.8c0 2-.6 3.7-1.7 4.9-1.2 1.2-2.7 1.8-4.8 1.8-1.9 0-3.5-.6-4.7-1.7-1.1-1.1-1.6-2.7-1.6-4.7m-1.3-6.7h.6c.2 0 .3.1.5.1v3.1c-.2-.1-.4-.2-.7-.3s-.6-.2-1.1-.2q-1.05 0-1.8.9c-.5.6-.7 1.5-.7 2.8v6.3h-3V64.8h3v1.9c.3-.7.7-1.2 1.2-1.6.6-.3 1.2-.5 2-.5M91.5 75.3c.4 0 .9-.1 1.4-.3s1-.5 1.4-.8v2.7c-.5.3-1 .5-1.6.6s-1.2.2-1.9.2c-1.8 0-3.4-.6-4.5-1.7s-1.7-2.6-1.7-4.5c0-2 .6-3.7 1.7-5 1.2-1.3 2.8-1.9 5-1.9.5 0 1.1.1 1.7.2s1 .3 1.3.5v2.8c-.5-.3-.9-.6-1.4-.8s-1-.3-1.4-.3c-1.1 0-2.1.4-2.8 1.1s-1.1 1.8-1.1 3.1.3 2.2 1 3c.8.7 1.7 1.1 2.9 1.1m-12 2.2h3V64.8h-3zm-.3-16.3c0-.5.2-.9.5-1.2s.8-.5 1.2-.5c.5 0 .9.2 1.3.5.3.3.5.7.5 1.2s-.2.9-.5 1.2-.8.5-1.3.5-.9-.2-1.3-.5c-.2-.3-.4-.7-.4-1.2m-2.6-1.4v17.5h-3.1V63.7l-5.4 13.7h-2l-5.6-13.7v13.7h-2.8V59.8h4.4l5.1 13h.1l5.3-13z" class="st0"/><path d="M3.3 59.8h19.5v19.5H3.3z" style="fill:#f05225"/><path d="M24.8 59.8h19.5v19.5H24.8z" style="fill:#7fbb42"/><path d="M3.3 81.4h19.5v19.5H3.3z" style="fill:#33a0da"/><path d="M24.8 81.4h19.5v19.5H24.8z" style="fill:#fdb813"/></svg>