<svg xmlns:xlink="http://www.w3.org/1999/xlink" xmlns="http://www.w3.org/2000/svg" xml:space="preserve" id="Layer_1" width="360" height="260" x="0" y="0" version="1.1"><style>.st1{fill:#fff}</style><path d="M0 0h360v260H0z" style="fill:#e63d35"/><path d="M211.8 159.7c-1.7 0-3.2-.7-4.4-1.8-2.4-2.4-2.4-6.4 0-8.9l16.9-17c.8-.8.8-2.1 0-2.9l-17.9-18c-2.4-2.4-2.4-6.4 0-8.9 1.2-1.2 2.7-1.8 4.4-1.8s3.2.7 4.4 1.8l23.7 23.9c2.4 2.4 2.4 6.4 0 8.9l-22.7 22.9c-1.1 1.1-2.7 1.8-4.4 1.8m-1-57.8c-1.2 0-2.4.5-3.3 1.4-1.8 1.8-1.8 4.8 0 6.6l17.9 18c1.4 1.4 1.4 3.7 0 5.2l-16.9 17c-1.8 1.8-1.8 4.8 0 6.6.9.9 2 1.4 3.3 1.4s2.4-.5 3.3-1.4l22.7-22.9c1.8-1.8 1.8-4.8 0-6.6l-23.7-23.9c-.9-.9-2-1.4-3.3-1.4M148.2 159.7c-1.7 0-3.2-.7-4.4-1.8l-22.8-23c-2.4-2.4-2.4-6.4 0-8.9l23.7-23.9c1.2-1.2 2.7-1.8 4.4-1.8s3.2.7 4.4 1.8c2.4 2.4 2.4 6.4 0 8.9l-17.9 18c-.8.8-.8 2.1 0 2.9l16.9 17c2.4 2.4 2.4 6.4 0 8.9-1.1 1.2-2.7 1.9-4.3 1.9m1-57.8c-1.2 0-2.4.5-3.3 1.4l-23.7 23.9c-1.8 1.8-1.8 4.8 0 6.6l22.7 22.9c.9.9 2 1.4 3.3 1.4s2.4-.5 3.3-1.4c1.8-1.8 1.8-4.8 0-6.6l-16.9-17c-1.4-1.4-1.4-3.7 0-5.2l17.9-18c1.8-1.8 1.8-4.8 0-6.6-.9-.9-2.1-1.4-3.3-1.4M168.1 160.4c-1 0-1.9-.2-2.8-.7-3.1-1.5-4.3-5.3-2.8-8.4l23.8-48.1c.7-1.5 2-2.6 3.6-3.2 1.6-.5 3.3-.4 4.8.3 3.1 1.5 4.3 5.3 2.8 8.4l-23.8 48.1c-1.1 2.2-3.2 3.6-5.6 3.6m23.8-59.1c-.5 0-1 .1-1.5.2-1.2.4-2.1 1.2-2.7 2.3L164 152c-1.1 2.3-.2 5.1 2.1 6.3.6.3 1.3.5 2.1.5 1.8 0 3.4-1 4.1-2.6L196 108c1.1-2.3.2-5.1-2.1-6.3-.6-.3-1.3-.4-2-.4" class="st1"/><path d="M179.8 230.2c-.8 0-1.5-.2-2.1-.5L101.9 188c-1.2-.7-2.2-2.2-2.4-3.6L85 65.2c-.2-1.5.8-3 2.2-3.5l90.3-31.8c1.2-.4 3.1-.4 4.3 0l90.9 31.2c1.4.5 2.4 2 2.2 3.5l-14.4 119.3c-.2 1.3-1.2 2.9-2.4 3.6l-76.2 42.3c-.6.3-1.3.4-2.1.4m-.1-199c-.6 0-1.2.1-1.6.2L87.8 63.2c-.7.2-1.2 1.1-1.1 1.8L101 184.3c.1.8.8 1.9 1.6 2.3l75.8 41.7c.7.4 2 .4 2.7 0l76.2-42.3c.7-.4 1.5-1.5 1.6-2.3l14.4-119.3c.1-.7-.4-1.5-1.1-1.8l-90.9-31.2c-.4-.1-1-.2-1.6-.2" class="st1"/><path d="M179.8 221.3c-.8 0-1.5-.2-2.1-.5L108.9 183c-1.2-.7-2.2-2.2-2.4-3.6L93.4 71.1c-.2-1.5.8-3 2.2-3.5l82-28.8c1.2-.4 3.1-.4 4.3 0l82.5 28.3c1.4.5 2.4 2 2.2 3.5L253.5 179c-.2 1.3-1.2 2.9-2.4 3.6L182 220.8c-.6.4-1.4.5-2.2.5m0-181.2c-.6 0-1.2.1-1.6.2l-82 28.8c-.7.2-1.2 1.1-1.1 1.8l13.1 108.3c.1.8.8 1.9 1.6 2.3l68.8 37.8c.7.4 2 .4 2.7 0l69.1-38.3c.7-.4 1.5-1.5 1.6-2.3l13-108.3c.1-.7-.4-1.5-1.1-1.8l-82.5-28.3c-.5-.1-1.1-.2-1.6-.2" class="st1"/></svg>