<svg xmlns:xlink="http://www.w3.org/1999/xlink" xmlns="http://www.w3.org/2000/svg" xml:space="preserve" id="Layer_1" width="300" height="300" x="0" y="0" version="1.1"><style>.st1{fill-rule:evenodd;clip-rule:evenodd}.st1,.st2{fill:none;stroke:#fff;stroke-width:1.6138;stroke-linecap:round;stroke-linejoin:round;stroke-miterlimit:10}</style><path d="M0 0h300v300H0z" style="fill:#42a047"/><path d="M90.1 107.3c0-.8-.4-1.5-1.1-1.9L71.2 95.2c-.3-.2-.6-.3-1-.3H70c-.3 0-.7.1-1 .3l-17.8 10.2c-.7.4-1.1 1.1-1.1 1.9v27.6c0 .4.2.7.5.9s.7.2 1.1 0l10.6-6.1c.7-.4 1.1-1.1 1.1-1.9V115c0-.8.4-1.5 1.1-1.9l4.5-2.6c.3-.2.7-.3 1.1-.3s.7.1 1.1.3l4.5 2.6c.7.4 1.1 1.1 1.1 1.9v12.9c0 .8.4 1.5 1.1 1.9l10.6 6.1c.3.2.7.2 1.1 0 .3-.2.5-.5.5-.9zM185 69.5c-.3-.2-.7-.2-1.1 0-.3.2-.5.5-.5.9v27.3c0 .3-.1.5-.4.7-.2.1-.5.1-.8 0l-4.5-2.6c-.7-.4-1.5-.4-2.1 0L157.9 106c-.7.4-1.1 1.1-1.1 1.9v20.5c0 .8.4 1.5 1.1 1.9l17.8 10.3c.7.4 1.5.4 2.1 0l17.8-10.3c.7-.4 1.1-1.1 1.1-1.9V77.3c0-.8-.4-1.5-1.1-1.9zm-1.6 52.2c0 .2-.1.4-.3.5l-6.1 3.5c-.2.1-.4.1-.5 0l-6.1-3.5c-.2-.1-.3-.3-.3-.5v-7.1c0-.2.1-.4.3-.5l6.1-3.5c.2-.1.4-.1.5 0l6.1 3.5c.2.1.3.3.3.5zM248.7 114.5c.7-.4 1.1-1.1 1.1-1.9v-5c0-.8-.4-1.5-1.1-1.9L231 95.5c-.7-.4-1.5-.4-2.2 0L211 105.8c-.7.4-1.1 1.1-1.1 1.9v20.5c0 .8.4 1.5 1.1 1.9l17.7 10.1c.7.4 1.5.4 2.1 0l10.7-5.9c.3-.2.6-.5.6-.9s-.2-.7-.5-.9L223.7 122c-.3-.2-.5-.5-.5-.9v-6.4c0-.4.2-.7.5-.9l5.6-3.2c.3-.2.7-.2 1.1 0l5.6 3.2c.3.2.5.5.5.9v5.1c0 .4.2.7.5.9s.7.2 1.1 0zM122.4 95.4c.7-.4 1.5-.4 2.1 0l17.8 10.3c.7.4 1.1 1.1 1.1 1.9v20.5c0 .8-.4 1.5-1.1 1.9l-17.8 10.3c-.7.4-1.5.4-2.1 0L104.6 130c-.7-.4-1.1-1.1-1.1-1.9v-20.5c0-.8.4-1.5 1.1-1.9z" class="st1"/><path d="M139.6 230.7c-1.1 0-2.2-.3-3.1-.8l-10-5.9c-1.5-.8-.8-1.1-.3-1.3 2-.7 2.4-.9 4.5-2.1.2-.1.5-.1.7.1l7.7 4.6c.3.2.7.2.9 0l30-17.3c.3-.2.5-.5.5-.8v-34.6c0-.3-.2-.7-.5-.8l-30-17.3q-.45-.3-.9 0l-29.9 17.3c-.3.2-.5.5-.5.8v34.6c0 .3.2.6.5.8l8.2 4.7c4.5 2.2 7.2-.4 7.2-3v-34.1c0-.5.4-.9.9-.9h3.8c.5 0 .9.4.9.9v34.1c0 5.9-3.2 9.4-8.9 9.4-1.7 0-3.1 0-6.9-1.9l-7.9-4.5c-1.9-1.1-3.1-3.2-3.1-5.5v-34.6c0-2.2 1.2-4.3 3.1-5.5l30-17.3c1.9-1.1 4.4-1.1 6.3 0l30 17.3c1.9 1.1 3.1 3.2 3.1 5.5v34.6c0 2.2-1.2 4.3-3.1 5.5l-30 17.3c-1 .4-2.1.7-3.2.7" class="st2"/><path d="M148.9 206.8c-13.1 0-15.9-6-15.9-11.1 0-.5.4-.9.9-.9h3.9c.4 0 .8.3.9.7.6 3.9 2.3 5.9 10.3 5.9 6.3 0 9-1.4 9-4.8 0-1.9-.8-3.4-10.6-4.3-8.2-.8-13.3-2.6-13.3-9.2 0-6 5.1-9.7 13.6-9.7 9.6 0 14.3 3.3 15 10.5 0 .2-.1.5-.2.7q-.3.3-.6.3H158c-.4 0-.8-.3-.8-.7-.9-4.1-3.2-5.5-9.4-5.5-6.9 0-7.7 2.4-7.7 4.2 0 2.2.9 2.8 10.3 4 9.2 1.2 13.6 2.9 13.6 9.4-.2 6.8-5.6 10.5-15.1 10.5" class="st2"/><path d="M196.6 159.1c0 3.2-2.6 5.8-5.8 5.8-3.1 0-5.8-2.6-5.8-5.8 0-3.3 2.7-5.8 5.8-5.8 3.2 0 5.8 2.5 5.8 5.8zm-7.9-3.3h2.2c.8 0 2.3 0 2.3 1.7 0 1.2-.3 1.5-.8 1.7 0 0 .5.6.6 1.4.1.5.2 1.4.3 1.7H192c0-.3-.2-2-.2-2-.1-.4-.2-.5-.7-.5H190v2.6h-1.3zm1.2 2.9h1c.8 0 1-.6 1-.9 0-.9-.6-.9-.9-.9h-1v1.8z" style="fill:none;stroke:#fff;stroke-width:.5;stroke-miterlimit:10"/></svg>