<svg xmlns:xlink="http://www.w3.org/1999/xlink" xmlns="http://www.w3.org/2000/svg" xml:space="preserve" id="Layer_1" width="160" height="160" x="0" y="0" version="1.1"><style>.st1{fill-rule:evenodd;clip-rule:evenodd;fill:#f8991d}</style><path d="M52.9 66c0 1.5.2 2.8.5 3.6.2 1 .7 1.9 1.2 2.8.2.2.2.7.2 1 0 .5-.2.7-.7 1.2l-2.6 1.9c-.5.2-.7.5-1 .5-.5 0-.7-.2-1.2-.5-.5-.7-1-1.2-1.5-1.9s-.7-1.5-1.2-2.4C43.5 76 39.5 78 34.4 78c-3.3 0-6.2-1-8.1-2.8-1.9-1.9-3.1-4.5-3.1-7.9 0-3.6 1.2-6.4 3.8-8.6 2.6-2.1 5.5-3.6 9.8-3.6 1.5 0 2.8 0 4.3.2s3.1.5 4.8 1v-3c0-3.1-.7-5.3-1.9-6.7-1.5-1.2-3.6-1.9-6.7-1.9-1.5 0-2.8.2-4.5.5-1.5.5-2.8 1-4.3 1.5-.7.2-1.2.5-1.5.5-.2 0-.5.2-.7.2-.7 0-1-.5-1-1.2V44c0-.7 0-1.2.2-1.5.2-.2.5-.5 1.2-1 1.5-.7 3.1-1.5 5.3-1.9 1.9-.5 4.1-.7 6.4-.7 4.8 0 8.6 1.2 10.7 3.3s3.3 5.5 3.3 10.1zm-16.6 6.3c1.5 0 2.8-.2 4.3-.7s2.8-1.5 3.8-2.6c.7-.7 1.2-1.7 1.5-2.6.2-1 .5-2.1.5-3.6v-1.9c-1.2-.2-2.4-.5-3.8-.7-1.5-.2-2.6 0-4.1 0-2.8 0-4.8.5-6.2 1.7-1.5 1.2-1.9 2.6-1.9 4.8 0 1.9.5 3.3 1.5 4.3.9.8 2.4 1.3 4.4 1.3m32.9 4.5c-.7 0-1.2-.2-1.7-.5-.2-.2-.7-.7-1-1.7L57 42.9c-.2-1-.2-1.5-.2-1.7 0-.7.2-1 1-1h4.1c.7 0 1.2.2 1.7.5.2 0 .5.7.7 1.5l6.8 27.3 6.5-27.3c.2-.7.5-1.5.7-1.7s1-.5 1.7-.5h3.2c.7 0 1.2.2 1.7.5.2.2.5 1 .7 1.7L92 69.9l7.1-27.7c.2-.7.5-1.5 1-1.7.2-.2 1-.5 1.7-.5h3.8c.7 0 1 .2 1 1v.7c0 .2-.2.5-.2 1l-10 31.7c-.2.7-.5 1.5-1 1.7-.2.2-1 .5-1.7.5h-3.6c-.7 0-1.2-.2-1.7-.5-.2-.2-.7-.7-.7-1.7l-6.1-26.2-6.5 26.4c-.2.7-.5 1.5-.7 1.7s-1 .5-1.7.5zm53 .9c-2.1 0-4.3-.2-6.4-.7s-3.6-1-4.8-1.7c-.7-.5-1.2-.7-1.2-1.2-.2-.5-.2-.7-.2-1.2v-2.1c0-1 .2-1.2 1-1.2.2 0 .5 0 .7.2.2 0 .7.2 1 .5 1.5.7 2.8 1.2 4.5 1.5 1.7.2 3.3.5 4.8.5 2.6 0 4.5-.5 6-1.5s2.1-2.1 2.1-3.8c0-1.2-.5-2.1-1.2-2.8s-2.1-1.5-4.1-2.1l-6-1.9c-3.1-1-5.3-2.4-6.7-4.3-1.5-1.9-2.1-3.8-2.1-6 0-1.7.5-3.3 1.2-4.5s1.7-2.4 2.8-3.3c1.2-1 2.6-1.7 4.3-2.1 1.7-.5 3.3-.7 5.3-.7 1 0 1.9 0 2.8.2 1 .2 1.9.2 2.6.5s1.7.5 2.4.7 1.2.5 1.7.7 1 .7 1.2 1c.2.2.5.7.5 1.5v1.9c0 1-.2 1.2-1 1.2-.2 0-1-.2-1.7-.5-2.4-1-5-1.7-7.9-1.7-2.4 0-4.3.5-5.5 1.2s-1.9 1.9-1.9 3.6c0 1.2.5 2.1 1.2 2.8s2.4 1.7 4.5 2.1l6.2 2.1c2.8 1 5 2.1 6.4 4.1 1.5 1.9 1.9 3.6 1.9 5.8 0 1.7-.5 3.3-1 4.8-.7 1.5-1.7 2.6-3.1 3.6-1.2 1-2.8 1.7-4.5 2.4-1.8.2-3.9.4-5.8.4" style="fill:#262f3e"/><path d="M129.8 97.8c-13.6 10.1-33.2 15.3-50.1 15.3-23.6 0-45.1-8.8-61.2-23.4-1.1-1.1-.2-2.6 1.5-1.9 17.4 10 38.9 16.2 61.3 16.2 15 0 31.6-3.1 46.8-9.6 1.9-.6 4.1 1.7 1.7 3.4" class="st1"/><path d="M135.5 91.3c-1.7-2.1-11.4-1-15.7-.5-1.2.2-1.5-1-.2-1.9 7.6-5.5 20.5-3.8 22-2.1 1.5 1.9-.5 14.5-7.6 20.8-1.2 1-2.1.5-1.7-.7 1.3-4.1 4.9-13.4 3.2-15.6" class="st1"/></svg>