<svg xmlns:xlink="http://www.w3.org/1999/xlink" xmlns="http://www.w3.org/2000/svg" xml:space="preserve" id="Layer_1" width="300" height="300" x="0" y="0" version="1.1"><style>.st1{fill:none;stroke:#fff;stroke-width:1.244;stroke-linecap:round;stroke-linejoin:round;stroke-miterlimit:10}</style><path d="M0 0h300v300H0z" style="fill:#e53a34"/><path d="M171.5 193.1h-43.1c-5.1 0-9.2-4.1-9.2-9.2V147c0-5.1 4.1-9.2 9.2-9.2h43.1c5.1 0 9.2 4.1 9.2 9.2v36.9c.1 5-4.1 9.2-9.2 9.2M125.4 137.6v-9.2c0-11.9 9.7-21.5 21.5-21.5h6.2c11.9 0 21.5 9.7 21.5 21.5v9.2" class="st1"/><path d="M168.5 137.6v-9.2c0-8.5-6.9-15.4-15.4-15.4h-6.2c-8.5 0-15.4 6.9-15.4 15.4v9.2M146.9 164.5c-1.8-1.1-3-3-3-5.3 0-3.4 2.8-6.2 6.2-6.2s6.2 2.8 6.2 6.2c0 2.2-1.2 4.2-2.9 5.2M153.1 164.7v13h-6.2v-13.2M100.8 146.9h-25c-1.4-5.3-6.2-9.2-11.9-9.2-6.8 0-12.3 5.5-12.3 12.3s5.5 12.3 12.3 12.3c5.7 0 10.6-3.9 11.9-9.2h25zm-37 9.3c-3.4 0-6.2-2.8-6.2-6.2s2.8-6.2 6.2-6.2 6.2 2.8 6.2 6.2-2.8 6.2-6.2 6.2M236.2 137.7c-5.7 0-10.6 3.9-11.9 9.2h-25v6.2h25c1.4 5.3 6.2 9.2 11.9 9.2 6.8 0 12.3-5.5 12.3-12.3s-5.5-12.3-12.3-12.3m0 18.5c-3.4 0-6.2-2.8-6.2-6.2s2.8-6.2 6.2-6.2 6.2 2.8 6.2 6.2c-.1 3.4-2.8 6.2-6.2 6.2M214.6 199.6v-15.8c0-8.5-6.9-15.4-15.4-15.4h-12.3v6.2h12.3c5.1 0 9.2 4.1 9.2 9.2v15.8c-5.3 1.4-9.2 6.2-9.2 11.9 0 6.8 5.5 12.3 12.3 12.3s12.3-5.5 12.3-12.3c.1-5.7-3.9-10.5-9.2-11.9m-3 18.1c-3.4 0-6.2-2.8-6.2-6.2s2.8-6.2 6.2-6.2 6.2 2.8 6.2 6.2c-.1 3.5-2.8 6.2-6.2 6.2M100.8 168.5c-8.5 0-15.4 6.9-15.4 15.4v15.8c-5.3 1.4-9.2 6.2-9.2 11.9 0 6.8 5.5 12.3 12.3 12.3s12.3-5.5 12.3-12.3c0-5.7-3.9-10.6-9.2-11.9v-15.8c0-5.1 4.1-9.2 9.2-9.2h12.3v-6.2zm-6.2 43.1c0 3.4-2.8 6.2-6.2 6.2s-6.2-2.8-6.2-6.2 2.8-6.2 6.2-6.2 6.2 2.8 6.2 6.2M223.9 88.4c0-6.8-5.5-12.3-12.3-12.3s-12.3 5.5-12.3 12.3c0 5.7 3.9 10.6 9.2 11.9v15.8c0 5.1-4.1 9.2-9.2 9.2H187v6.2h12.3c8.5 0 15.4-6.9 15.4-15.4v-15.8c5.2-1.3 9.2-6.1 9.2-11.9m-12.3 6.2c-3.4 0-6.2-2.8-6.2-6.2s2.8-6.2 6.2-6.2 6.2 2.8 6.2 6.2c-.1 3.4-2.8 6.2-6.2 6.2M100.8 125.4c-5.1 0-9.2-4.1-9.2-9.2v-15.8c5.3-1.4 9.2-6.2 9.2-11.9 0-6.8-5.5-12.3-12.3-12.3s-12.3 5.5-12.3 12.3c0 5.7 3.9 10.6 9.2 11.9v15.8c0 8.5 6.9 15.4 15.4 15.4h12.3v-6.2zm-18.5-37c0-3.4 2.8-6.2 6.2-6.2s6.2 2.8 6.2 6.2-2.8 6.2-6.2 6.2c-3.5 0-6.2-2.8-6.2-6.2M143.8 211.6c0-6.8-5.5-12.3-12.3-12.3s-12.3 5.5-12.3 12.3c0 5.7 3.9 10.6 9.2 11.9v25h6.2v-25c5.3-1.4 9.2-6.2 9.2-11.9m-12.3 6.1c-3.4 0-6.2-2.8-6.2-6.2s2.8-6.2 6.2-6.2 6.2 2.8 6.2 6.2c0 3.5-2.8 6.2-6.2 6.2M180.8 211.6c0-6.8-5.5-12.3-12.3-12.3s-12.3 5.5-12.3 12.3c0 5.7 3.9 10.6 9.2 11.9v25h6.2v-25c5.2-1.4 9.2-6.2 9.2-11.9m-12.3 6.1c-3.4 0-6.2-2.8-6.2-6.2s2.8-6.2 6.2-6.2 6.2 2.8 6.2 6.2c-.1 3.5-2.8 6.2-6.2 6.2M134.6 76.5v-25h-6.2v25c-5.3 1.4-9.2 6.2-9.2 11.9 0 6.8 5.5 12.3 12.3 12.3s12.3-5.5 12.3-12.3c0-5.7-3.9-10.5-9.2-11.9m-3.1 18.1c-3.4 0-6.2-2.8-6.2-6.2s2.8-6.2 6.2-6.2 6.2 2.8 6.2 6.2-2.8 6.2-6.2 6.2M171.5 76.5v-25h-6.2v25c-5.3 1.4-9.2 6.2-9.2 11.9 0 6.8 5.5 12.3 12.3 12.3s12.3-5.5 12.3-12.3c.1-5.7-3.9-10.5-9.2-11.9m-3 18.1c-3.4 0-6.2-2.8-6.2-6.2s2.8-6.2 6.2-6.2 6.2 2.8 6.2 6.2c-.1 3.4-2.8 6.2-6.2 6.2M186.9 146.9h6.2v6.2h-6.2zM106.9 146.9h6.2v6.2h-6.2z" class="st1"/></svg>